<svg version="1.2" xmlns="http://www.w3.org/2000/svg" viewBox="0 0 500 500" width="500" height="500">
	<title>New Project</title>
	<defs>
		<radialGradient id="g1" cx="184.6" cy="386.1" r="12.5" gradientUnits="userSpaceOnUse">
			<stop offset="0" stop-color="#99ffff"/>
			<stop offset="1" stop-color="#000000"/>
		</radialGradient>
		<radialGradient id="g2" cx="173.7" cy="225.7" r="12" gradientUnits="userSpaceOnUse">
			<stop offset="0" stop-color="#99ffff"/>
			<stop offset="1" stop-color="#000000"/>
		</radialGradient>
		<radialGradient id="g3" cx="248.2" cy="312.4" r="10.1" gradientUnits="userSpaceOnUse">
			<stop offset="0" stop-color="#99ffff"/>
			<stop offset="1" stop-color="#000000"/>
		</radialGradient>
		<radialGradient id="g4" cx="301.3" cy="49.4" r="10.7" gradientUnits="userSpaceOnUse">
			<stop offset="0" stop-color="#99ffff"/>
			<stop offset="1" stop-color="#000000"/>
		</radialGradient>
		<radialGradient id="g5" cx="343.8" cy="216.3" r="9.9" gradientUnits="userSpaceOnUse">
			<stop offset="0" stop-color="#99ffff"/>
			<stop offset="1" stop-color="#000000"/>
		</radialGradient>
		<radialGradient id="g6" cx="438.8" cy="242.7" r="9.7" gradientUnits="userSpaceOnUse">
			<stop offset="0" stop-color="#99ffff"/>
			<stop offset="1" stop-color="#000000"/>
		</radialGradient>
		<radialGradient id="g7" cx="97" cy="69.1" r="9.6" gradientUnits="userSpaceOnUse">
			<stop offset="0" stop-color="#99ffff"/>
			<stop offset="1" stop-color="#000000"/>
		</radialGradient>
		<radialGradient id="g8" cx="173.9" cy="98.9" r="7.5" gradientUnits="userSpaceOnUse">
			<stop offset="0" stop-color="#99ffff"/>
			<stop offset="1" stop-color="#000000"/>
		</radialGradient>
		<radialGradient id="g9" cx="258.1" cy="336.9" r="7.3" gradientUnits="userSpaceOnUse">
			<stop offset="0" stop-color="#99ffff"/>
			<stop offset="1" stop-color="#000000"/>
		</radialGradient>
		<radialGradient id="g10" cx="380.7" cy="420.6" r="7.3" gradientUnits="userSpaceOnUse">
			<stop offset="0" stop-color="#99ffff"/>
			<stop offset="1" stop-color="#000000"/>
		</radialGradient>
		<radialGradient id="g11" cx="180.7" cy="288.2" r="6.6" gradientUnits="userSpaceOnUse">
			<stop offset="0" stop-color="#99ffff"/>
			<stop offset="1" stop-color="#000000"/>
		</radialGradient>
		<radialGradient id="g12" cx="169.3" cy="80.8" r="7" gradientUnits="userSpaceOnUse">
			<stop offset="0" stop-color="#99ffff"/>
			<stop offset="1" stop-color="#000000"/>
		</radialGradient>
		<radialGradient id="g13" cx="279.1" cy="223.4" r="7.4" gradientUnits="userSpaceOnUse">
			<stop offset="0" stop-color="#99ffff"/>
			<stop offset="1" stop-color="#000000"/>
		</radialGradient>
		<radialGradient id="g14" cx="158.4" cy="296.3" r="5.2" gradientUnits="userSpaceOnUse">
			<stop offset="0" stop-color="#99ffff"/>
			<stop offset="1" stop-color="#000000"/>
		</radialGradient>
		<radialGradient id="g15" cx="183.9" cy="165.3" r="5.4" gradientUnits="userSpaceOnUse">
			<stop offset="0" stop-color="#99ffff"/>
			<stop offset="1" stop-color="#000000"/>
		</radialGradient>
		<radialGradient id="g16" cx="279.9" cy="145.8" r="4.3" gradientUnits="userSpaceOnUse">
			<stop offset="0" stop-color="#99ffff"/>
			<stop offset="1" stop-color="#000000"/>
		</radialGradient>
		<radialGradient id="g17" cx="243" cy="156.8" r="4.8" gradientUnits="userSpaceOnUse">
			<stop offset="0" stop-color="#99ffff"/>
			<stop offset="1" stop-color="#000000"/>
		</radialGradient>
		<radialGradient id="g18" cx="330" cy="297.7" r="4.2" gradientUnits="userSpaceOnUse">
			<stop offset="0" stop-color="#99ffff"/>
			<stop offset="1" stop-color="#000000"/>
		</radialGradient>
		<radialGradient id="g19" cx="484.6" cy="226.6" r="4.2" gradientUnits="userSpaceOnUse">
			<stop offset="0" stop-color="#99ffff"/>
			<stop offset="1" stop-color="#000000"/>
		</radialGradient>
		<radialGradient id="g20" cx="39.4" cy="222.7" r="8.8" gradientUnits="userSpaceOnUse">
			<stop offset="0" stop-color="#99ffff"/>
			<stop offset="1" stop-color="#000000"/>
		</radialGradient>
		<radialGradient id="g21" cx="48.5" cy="259.5" r="5.2" gradientUnits="userSpaceOnUse">
			<stop offset="0" stop-color="#99ffff"/>
			<stop offset="1" stop-color="#000000"/>
		</radialGradient>
		<radialGradient id="g22" cx="112.1" cy="166.1" r="121.5" gradientUnits="userSpaceOnUse">
			<stop offset="0" stop-color="#9ecfff"/>
			<stop offset="1" stop-color="#ffffff"/>
		</radialGradient>
		<radialGradient id="g23" cx="110.2" cy="205.9" r="136.6" gradientUnits="userSpaceOnUse">
			<stop offset="0" stop-color="#aac2e6"/>
			<stop offset="1" stop-color="#ffffff"/>
		</radialGradient>
		<radialGradient id="g24" cx="202.6" cy="154.8" r="378.3" gradientUnits="userSpaceOnUse">
			<stop offset="0" stop-color="#009ced"/>
			<stop offset=".9" stop-color="#4e3bf5"/>
		</radialGradient>
		<radialGradient id="g25" cx="280.2" cy="279.3" r="262.3" gradientUnits="userSpaceOnUse">
			<stop offset="0" stop-color="#000000"/>
			<stop offset=".8" stop-color="#000000"/>
			<stop offset="1" stop-color="#99f0ff"/>
		</radialGradient>
		<radialGradient id="g26" cx="158.6" cy="91.9" r="334.7" gradientUnits="userSpaceOnUse">
			<stop offset="0" stop-color="#1fceff"/>
			<stop offset="1" stop-color="#000000"/>
		</radialGradient>
		<radialGradient id="g27" cx="204.4" cy="172" r="367" gradientUnits="userSpaceOnUse">
			<stop offset=".6" stop-color="#f5f5ff"/>
			<stop offset="1" stop-color="#c899d7"/>
		</radialGradient>
		<radialGradient id="g28" cx="200.1" cy="194.2" r="223.1" gradientUnits="userSpaceOnUse">
			<stop offset="0" stop-color="#91eb00"/>
			<stop offset="1" stop-color="#05a100"/>
		</radialGradient>
		<radialGradient id="g29" cx="239.2" cy="142.7" r="303.1" gradientUnits="userSpaceOnUse">
			<stop offset="0" stop-color="#8fe561"/>
			<stop offset="1" stop-color="#000000"/>
		</radialGradient>
		<radialGradient id="g30" cx="226.4" cy="117" r="686.4" gradientUnits="userSpaceOnUse">
			<stop offset="0" stop-color="#94ffe1"/>
			<stop offset="1" stop-color="#2dcbbb"/>
		</radialGradient>
		<radialGradient id="g31" cx="127.6" cy="225.1" r="248.5" gradientUnits="userSpaceOnUse">
			<stop offset="0" stop-color="#dede00"/>
			<stop offset=".5" stop-color="#abab00"/>
			<stop offset=".9" stop-color="#6e6e00"/>
		</radialGradient>
		<radialGradient id="g32" cx="178.9" cy="268.8" r="190.3" gradientUnits="userSpaceOnUse">
			<stop offset="0" stop-color="#ffffff"/>
			<stop offset="1" stop-color="#009933"/>
		</radialGradient>
		<radialGradient id="g33" cx="351.1" cy="192.9" r="168" gradientUnits="userSpaceOnUse">
			<stop offset="0" stop-color="#f0ab54"/>
			<stop offset="1" stop-color="#b87126"/>
		</radialGradient>
		<radialGradient id="g34" cx="286.6" cy="262.8" r="219.1" gradientUnits="userSpaceOnUse">
			<stop offset="0" stop-color="#78e05b"/>
			<stop offset="1" stop-color="#0d9c00"/>
		</radialGradient>
		<radialGradient id="g35" cx="131.5" cy="57.3" r="266.4" gradientUnits="userSpaceOnUse">
			<stop offset="0" stop-color="#ffffff"/>
			<stop offset="1" stop-color="#9ecfff"/>
		</radialGradient>
		<radialGradient id="g36" cx="401.1" cy="138.6" r="111.3" gradientUnits="userSpaceOnUse">
			<stop offset="0" stop-color="#ffffff"/>
			<stop offset="1" stop-color="#848431"/>
		</radialGradient>
		<radialGradient id="g37" cx="77.3" cy="264.8" r="136.9" gradientUnits="userSpaceOnUse">
			<stop offset="0" stop-color="#ffffff"/>
			<stop offset="1" stop-color="#009933"/>
		</radialGradient>
		<radialGradient id="g38" cx="132.5" cy="357.3" r="129.8" gradientUnits="userSpaceOnUse">
			<stop offset="0" stop-color="#f0ab54"/>
			<stop offset="1" stop-color="#b87126"/>
		</radialGradient>
		<radialGradient id="g39" cx="130.7" cy="359.4" r="157.7" gradientUnits="userSpaceOnUse">
			<stop offset="0" stop-color="#ffffff"/>
			<stop offset="1" stop-color="#848431"/>
		</radialGradient>
		<radialGradient id="g40" cx="219.5" cy="124.1" r="160.7" gradientUnits="userSpaceOnUse">
			<stop offset="0" stop-color="#f2f6ff"/>
			<stop offset="1" stop-color="#000000"/>
		</radialGradient>
		<radialGradient id="g41" cx="126.9" cy="207.7" r="163.9" gradientUnits="userSpaceOnUse">
			<stop offset="0" stop-color="#c5c55c"/>
			<stop offset="1" stop-color="#000a00"/>
		</radialGradient>
		<radialGradient id="g42" cx="194.8" cy="45.5" r="84.2" gradientUnits="userSpaceOnUse">
			<stop offset="0" stop-color="#9ecfff"/>
			<stop offset="1" stop-color="#ffffff"/>
		</radialGradient>
		<radialGradient id="g43" cx="202.1" cy="107" r="285.1" gradientUnits="userSpaceOnUse">
			<stop offset="0" stop-color="#aac2e6"/>
			<stop offset="1" stop-color="#ffffff"/>
		</radialGradient>
		<radialGradient id="g44" cx="181.8" cy="338.6" r="156.2" gradientUnits="userSpaceOnUse">
			<stop offset="0" stop-color="#9ecfff"/>
			<stop offset="1" stop-color="#ffffff"/>
		</radialGradient>
		<radialGradient id="g45" cx="193.4" cy="418.7" r="144.7" gradientUnits="userSpaceOnUse">
			<stop offset="0" stop-color="#aac2e6"/>
			<stop offset="1" stop-color="#ffffff"/>
		</radialGradient>
		<radialGradient id="g46" cx="79" cy="305.3" r="63.7" gradientUnits="userSpaceOnUse">
			<stop offset="0" stop-color="#9ecfff"/>
			<stop offset="1" stop-color="#ffffff"/>
		</radialGradient>
		<radialGradient id="g47" cx="73" cy="325.5" r="69.2" gradientUnits="userSpaceOnUse">
			<stop offset="0" stop-color="#aac2e6"/>
			<stop offset="1" stop-color="#ffffff"/>
		</radialGradient>
		<radialGradient id="g48" cx="247.1" cy="162.2" r="188.7" gradientUnits="userSpaceOnUse">
			<stop offset="0" stop-color="#9ecfff"/>
			<stop offset="1" stop-color="#ffffff"/>
		</radialGradient>
		<radialGradient id="g49" cx="266.4" cy="184.5" r="191.4" gradientUnits="userSpaceOnUse">
			<stop offset="0" stop-color="#aac2e6"/>
			<stop offset="1" stop-color="#ffffff"/>
		</radialGradient>
		<radialGradient id="g50" cx="364.1" cy="239.1" r="191.2" gradientUnits="userSpaceOnUse">
			<stop offset="0" stop-color="#9ecfff"/>
			<stop offset="1" stop-color="#ffffff"/>
		</radialGradient>
		<radialGradient id="g51" cx="418.7" cy="267.9" r="254.2" gradientUnits="userSpaceOnUse">
			<stop offset="0" stop-color="#aac2e6"/>
			<stop offset="1" stop-color="#ffffff"/>
		</radialGradient>
		<radialGradient id="g52" cx="490.5" cy="218.7" r="59.8" gradientUnits="userSpaceOnUse">
			<stop offset="0" stop-color="#9ecfff"/>
			<stop offset="1" stop-color="#ffffff"/>
		</radialGradient>
		<radialGradient id="g53" cx="481.4" cy="239.4" r="67.8" gradientUnits="userSpaceOnUse">
			<stop offset="0" stop-color="#aac2e6"/>
			<stop offset="1" stop-color="#ffffff"/>
		</radialGradient>
		<radialGradient id="g54" cx="340.5" cy="420.2" r="240" gradientUnits="userSpaceOnUse">
			<stop offset="0" stop-color="#9ecfff"/>
			<stop offset="1" stop-color="#ffffff"/>
		</radialGradient>
		<radialGradient id="g55" cx="363.4" cy="437" r="166.1" gradientUnits="userSpaceOnUse">
			<stop offset="0" stop-color="#aac2e6"/>
			<stop offset="1" stop-color="#ffffff"/>
		</radialGradient>
	</defs>
	<style>
		.s0 { mix-blend-mode: screen;fill: url(#g1) } 
		.s1 { mix-blend-mode: screen;fill: url(#g2) } 
		.s2 { mix-blend-mode: screen;fill: url(#g3) } 
		.s3 { mix-blend-mode: screen;fill: url(#g4) } 
		.s4 { mix-blend-mode: screen;fill: url(#g5) } 
		.s5 { mix-blend-mode: screen;fill: url(#g6) } 
		.s6 { mix-blend-mode: screen;fill: url(#g7) } 
		.s7 { mix-blend-mode: screen;fill: url(#g8) } 
		.s8 { mix-blend-mode: screen;fill: url(#g9) } 
		.s9 { mix-blend-mode: screen;fill: url(#g10) } 
		.s10 { mix-blend-mode: screen;fill: url(#g11) } 
		.s11 { mix-blend-mode: screen;fill: url(#g12) } 
		.s12 { mix-blend-mode: screen;fill: url(#g13) } 
		.s13 { mix-blend-mode: screen;fill: url(#g14) } 
		.s14 { mix-blend-mode: screen;fill: url(#g15) } 
		.s15 { mix-blend-mode: screen;fill: url(#g16) } 
		.s16 { mix-blend-mode: screen;fill: url(#g17) } 
		.s17 { mix-blend-mode: screen;fill: url(#g18) } 
		.s18 { mix-blend-mode: screen;fill: url(#g19) } 
		.s19 { mix-blend-mode: screen;fill: url(#g20) } 
		.s20 { mix-blend-mode: screen;fill: url(#g21) } 
		.s21 { fill: url(#g22) } 
		.s22 { mix-blend-mode: multiply;fill: url(#g23) } 
		.s23 { fill: url(#g24) } 
		.s24 { mix-blend-mode: screen;fill: url(#g25) } 
		.s25 { mix-blend-mode: screen;fill: url(#g26) } 
		.s26 { mix-blend-mode: multiply;fill: url(#g27) } 
		.s27 { fill: url(#g28) } 
		.s28 { mix-blend-mode: screen;fill: url(#g29) } 
		.s29 { fill: url(#g30) } 
		.s30 { fill: url(#g31) } 
		.s31 { opacity: .5;mix-blend-mode: multiply;fill: url(#g32) } 
		.s32 { fill: url(#g33) } 
		.s33 { fill: url(#g34) } 
		.s34 { fill: url(#g35) } 
		.s35 { mix-blend-mode: multiply;fill: url(#g36) } 
		.s36 { mix-blend-mode: multiply;fill: url(#g37) } 
		.s37 { fill: url(#g38) } 
		.s38 { mix-blend-mode: multiply;fill: url(#g39) } 
		.s39 { mix-blend-mode: screen;fill: url(#g40) } 
		.s40 { mix-blend-mode: screen;fill: url(#g41) } 
		.s41 { fill: url(#g42) } 
		.s42 { mix-blend-mode: multiply;fill: url(#g43) } 
		.s43 { fill: url(#g44) } 
		.s44 { mix-blend-mode: multiply;fill: url(#g45) } 
		.s45 { fill: url(#g46) } 
		.s46 { mix-blend-mode: multiply;fill: url(#g47) } 
		.s47 { fill: url(#g48) } 
		.s48 { mix-blend-mode: multiply;fill: url(#g49) } 
		.s49 { fill: url(#g50) } 
		.s50 { mix-blend-mode: multiply;fill: url(#g51) } 
		.s51 { fill: url(#g52) } 
		.s52 { mix-blend-mode: multiply;fill: url(#g53) } 
		.s53 { fill: url(#g54) } 
		.s54 { mix-blend-mode: multiply;fill: url(#g55) } 
	</style>
	<path id="&lt;Path&gt;" class="s0" d="m175.8 379.2c2.5-1.4 6-2.1 7.8-5.6 0.4-1 2-1.4 3.2-1.9 1.5-0.5 2.8-0.2 3.6 1.5 1.3 2.7 2.5 5.5 4.7 7.8 3.4 3.6 1.3 8.2 1.2 12.3 0 0.7-1 1.4-1.6 1.9-1.8 1.7-3.6 3.4-5.4 4.9-0.5 0.5-1.4 0.8-2 0.7-3.2-0.6-6.3-1-9.4-1.9-1-0.3-1.8-1.6-2.5-2.6-1-1.4-3.1-1.8-3.2-3.9-0.1-2.8-0.2-5.6 0.8-8.2 0.6-1.6 1.7-3.1 2.8-5z"/>
	<path id="&lt;Path&gt;" class="s1" d="m184.4 233.1c-6.4 4.3-12.8 5.7-19.9 2.3 0.7-2.7-0.8-5.1-2.1-7.5-1.2-2.3-0.1-4.8-0.6-7.3 2.1-1.5 4.7-2.6 6.3-4.6 1.6-2 3.3-1.8 5.3-1.7 1.8 0 3.6-0.7 5.2 1 1.2 1.2 3 1.8 4.6 2.6 0.3 0.2 0.8 0.4 0.8 0.6 0.7 2.7 1.6 5.4 1.7 8.2 0.1 2.2-0.9 4.5-1.3 6.4z"/>
	<path id="&lt;Path&gt;" class="s2" d="m241.3 301.7c3.4-0.1 6.7 2 10.5 2.3 1.1 0.1 2.2 1.1 3.6 1.2 0.9 0.1 1.8 1.6 2.5 2.6 0.3 0.4 0.1 1.3 0.3 1.9 0.5 2.3-1.6 4.5-0.1 6.8 0.2 0.3-0.1 1.3-0.5 1.5-3.2 1.7-5 5.9-9.6 4.9-1.2-0.3-4.9-2.3-5.5-3.2-1.5-2.3-1.4-5.5-4.3-6.8-0.3-2.5-0.1-4.9 1.3-7.2 0.8-1.2 1.2-2.7 1.8-4z"/>
	<path id="&lt;Path&gt;" class="s3" d="m302.1 58.8c-1.9-0.4-3.7-0.4-5.4-1-1.6-0.6-2.9-1.8-4.3-2.7-0.4-1.5-0.5-3.1-1.1-4.6-0.7-1.8-1.1-3.6 0.2-5.3 2-2.4 3.5-5.5 7.4-5.2 2.6 0.2 5.3-0.2 7.4 2.4 1 1.3 2.9 1.9 4.3 2.9 1.5 0.9 1.8 2.1 1 3.7-1.4 2.9-3 5.5-6 7.1-1.2 0.6-2.2 1.7-3.5 2.7z"/>
	<path id="&lt;Path&gt;" class="s4" d="m348.2 225c-1.4-0.3-3.7 0.8-6.3-0.1-2.8-1.1-5.1-1.9-6.9-4.8-1.2-2.1-1.4-3.6-0.5-5.5 0.3-0.7 1.1-1.3 1.5-2 1.1-2.4 2.7-4.8 5.3-4.9 3.7-0.1 7.8-1.3 10.9 2.2 1 1 1.8 1.7 1.5 3.1-0.6 2.8-0.9 5.6-1.5 8.4-0.4 1.6-0.9 3.2-4 3.6z"/>
	<path id="&lt;Path&gt;" class="s5" d="m429.1 244.9c0.9-3.4 2.4-6.2 4.8-8.5 1.8-1.8 8.8-4 10.7-2.8 1.3 0.9 3.3 1.7 3.3 3.9 0 1.5-0.6 3.4 0.1 4.6 1.6 3.1-0.9 5-2.2 6.4-1.3 1.2-2.4 4.7-5.6 2.8-3 1.4-5.9 1.1-8.2-1.4-1.3-1.5-2-3.4-2.9-5z"/>
	<path id="&lt;Path&gt;" class="s6" d="m102.4 77.3c-3.5-1.3-7.4 1.6-10.6-1.6-1.7-1.7-1.9-1.5-4.4-7.3 2.4-6 4.5-7.5 11.2-7.5 1.5 0 3.1 0.1 4.8 0.2 2.7 2.3 1.8 6.2 3.2 9.2 0.2 0.3-0.1 0.9-0.4 1.3-1.2 1.9-2.5 3.8-3.8 5.7z"/>
	<path id="&lt;Path&gt;" class="s7" d="m174.7 91c1.2 0.5 2.2 0.9 3.5 1.3 1.1 2.4 2.2 4.9 3.2 7.1 0.5 3.3-2.5 4.2-3.9 6.3-0.9 1.4-7.4 1.4-8.6 0-1.5-1.9-3-3.9-2.3-6.9 0.7-3 1.6-5.2 4.7-6.2 1-0.4 2-0.9 3.4-1.6z"/>
	<path id="&lt;Path&gt;" class="s8" d="m265.3 340.9c-1.9 0.8-3.4 1.5-5.9 2.7-0.6-0.4-1.9-1.2-3.2-1.7-3.3-1.3-4.4-4.2-5.4-7-0.3-0.7 0.5-2.2 1.2-2.7 1.4-0.9 3-1.4 4.4-2.1 1.7 0.6 3.5 1.8 4.8 1.4 2.2-0.7 1.6 2.6 3.6 1.3-0.6 1.8-2 3.2 0.3 4.4 0.5 0.2 0.1 2.2 0.2 3.7z"/>
	<path id="&lt;Path&gt;" class="s9" d="m380.5 427.2c-2.6-2.5-5.4-5.1-6.8-8.9-0.5-1.4-0.4-2.7 0.4-3.5 0.8-1 2.1-1.1 3.5-0.5 3.3 1.5 6.8 1.4 10.4 0.5-0.1 1.3-0.2 2.6-0.5 3.9-0.4 2.1-0.8 4.1-1.2 6.2-2.3-0.4-2.9 2.7-5.8 2.3z"/>
	<path id="&lt;Path&gt;" class="s10" d="m187.3 288.4c-0.5 1.5-1.2 3.2-1.8 4.9q-1.6 0.8-3.1 1.4c-1-0.3-2.2-0.6-3.1-1.2-1.5-0.8-3.3-1.6-4.2-3-0.9-1.3-1-3.3-1-5.1 0.1-0.8 1-1.9 1.8-2.4 2.2-1.4 3.3-1.5 8.4-1.2q1.4 3.1 3 6.6z"/>
	<path id="&lt;Path&gt;" class="s11" d="m167.5 74.8c1.9 0.3 4 2.5 6.7 0.2 0.6 1.3 1 2.2 1.4 3.2 1.1 2.3 0.6 4.3-0.9 6.1-1.8 2.2-4.5 2.9-6.8 2.3-1.9-0.6-3.5-2.6-5.1-4.2-1.1-1.1-0.3-2.5 0.6-3.4 1.2-1.5 2.6-2.7 4.1-4.2z"/>
	<path id="&lt;Path&gt;" class="s12" d="m286.6 224.8c-1.9 2.4-4.6 2.8-7.2 3.6-3.5 1.1-5.3 0.5-6.9-2.7q-0.3-0.5-0.5-1c-0.1-0.3-0.2-0.7-0.3-1 0.9-0.9 2-1.5 2.6-2.5 2.3-3.8 5-4.4 8.5-1.6 1.6 1.3 3.5 2.5 3.8 5.2z"/>
	<path id="&lt;Path&gt;" class="s13" d="m160.8 300.9c-1.8-0.7-3.9 0.3-5.7-1.8-2-2.5-2.4-2.2-1.3-4.9 0.9-2 2.5-2.8 4.7-2.5q1.8 0.3 3.6 0.6c2.2 3 2.3 5.8-1.3 8.6z"/>
	<path id="&lt;Path&gt;" class="s14" d="m189.3 162.5c-0.1 4-4 4.7-5.6 7.3-1-0.7-1.9-1.3-2.7-1.8-2.8-1.7-3.3-4.5-1-6.6 0.5-0.4 1.4-0.7 2-0.6 2.5 0.4 4.9 1.1 7.3 1.7z"/>
	<path id="&lt;Path&gt;" class="s15" d="m276.4 150.3c-1.8-2.8 0-5.5 0.5-8.1 0.3-1.6 4.8-0.9 6 0.9 0.4 0.6 0.7 1.3 1 2 0.9 2.3 0.2 3.8-2.3 4.5-1.6 0.4-3.4 0.5-5.2 0.7z"/>
	<path id="&lt;Path&gt;" class="s16" d="m247.9 154.4c-0.8 1.6-1.3 3-1.9 4.3-0.9 2-2.8 2.7-4.4 1.3-1.5-1.3-3.7-2.3-3.4-5 4.9-2.8 4.9-2.8 9.7-0.6z"/>
	<path id="&lt;Path&gt;" class="s17" d="m333.7 294.4c0.2 1.7 0.3 3.4 0.4 5.1-2.7 1.7-5.3 2.7-8.3 0.3q0.3-2.5 0.6-5.6c2.5 0 4.8 0.1 7.3 0.2z"/>
	<path id="&lt;Path&gt;" class="s18" d="m480.4 228.7c1.2-3.6 1.2-3.6 4.9-5.3 1 0.6 2.1 1.2 2.8 2.1 0.5 0.5 0.5 1.6 0.6 2.5-1.5-0.6-0.6 2.5-2.7 1.6-1.5-0.7-3.4-0.6-5.6-0.9z"/>
	<path id="&lt;Path&gt;" class="s19" d="m37.7 214c2.7 2.4 7.2 1.2 9 5.2 1 2.1 1.2 2 1.5 8-4.3 4.7-6.7 5.3-12.7 3-1.4-0.5-2.8-1.2-4.3-1.8-1.6-3.1 0.5-6.3 0.3-9.5-0.1-0.3 0.4-0.8 0.8-1.1 1.7-1.3 3.5-2.5 5.4-3.8z"/>
	<path id="&lt;Path&gt;" class="s20" d="m47.6 264.8c-0.8-3.3-0.8-3.3-4.3-5.3 1-0.8 1.7-1.8 2.7-2.2 1.8-0.7 0-2.3 1-3.1 3.7-0.2 6.3 2.2 6.6 6 0.1 1.2-0.3 1.9-1 2.8-1.3 1.4-1.3 1.4-5 1.8z"/>
	<path id="&lt;Path&gt;" class="s21" d="m154.9 63.8c-1.8 26.9-102.2 186.5-123.8 178.4-13.1-4.9-27.2-37.8-18.4-58.1 2.4-5.6 6.7-8.8 12.7-8.3-7.9-22.5-11.5-50.7 3.3-70.7 10-13.4 26.7-15.4 36.9-9.7 5.5-17.2 19.7-48.9 44.5-46.1 8.9 1 9.6 7.9 8.3 12.7 2.7-3.7 6.4-7.1 10.8-9.3 10.9-5.5 26.7-4.7 25.7 11.1z"/>
	<path id="&lt;Path&gt;" class="s22" d="m30.4 187.3c-6-30-11.5-88.6 33.5-85.8-1.2 4.5-2.1 8.3-3.2 13.6 11.6-30.1 32-67.2 49.2-58.2 2.8 1.5 5.3 9.1 3.8 15.2 23.2-30.3 40.6-14.7 33.7 13.1-24 51.6-98.1 163.8-116.3 157-2.3-0.8-4.6-2.5-6.8-4.8-11.5-16.6-16-62.3 3.1-57.3q1.5 3.6 3 7.2z"/>
	<path id="&lt;Path&gt;" class="s23" d="m260.3 490.7c-128.9 0-233-104.2-233-233 0-128.9 104.1-233.1 233-233.1 128.9 0 233.1 104.2 233.1 233.1 0 128.8-104.2 233-233.1 233z"/>
	<path id="&lt;Path&gt;" class="s24" d="m260.3 490.7c-128.9 0-233-104.2-233-233 0-128.9 104.1-233.1 233-233.1 128.9 0 233.1 104.2 233.1 233.1 0 128.8-104.2 233-233.1 233z"/>
	<path id="&lt;Compound Path&gt;" fill-rule="evenodd" class="s25" d="m263.3 401.5c2.2-2.3 6-2.9 8.1-7.6 1-2.2 1.5-5.6 2.6-8 2.1-4.8 8-5.1 8.2 4.4 0.2 12.5 8.6 6.7 7.5-0.6-0.9-6.1 7.9-10.2 13-11.6 8.3-2.1 8.2-12.5 14.9-11.6 4.8 0.6 6.8 0.2 6.1 5.1-1.4 9.2-0.9 8.4-10.3 11.2-11.8 3.5-2.9 9.6-5.5 11.8-8.9 7.6 0.7 9.2-12.5 11.9-12 2.4-3.7 5.3-7.7 6.3-5.2 1.3-6.3 2.1-8.3 4.4-5.8 6.6-13.9 8-22.4 5-3.3-1.2 0-7.7-3.9-7.6-8.2 0.4-8.4-4-5.8-7.2 1.9-2.3 4.7-1.2 8.2-1.9 4.8-1.1 5.7-1.9 7.8-4zm-58.2-355.7c0.9-0.1 1.8-0.4 2.7-0.6 1.9-0.5 3.7-1.3 5.6-1.6 7-0.9 13.9-1.8 20.9-1.9 1.6 0 2.9 1.5 4.4 1.8 2.1 0.5 4.3 0.6 6.4 0.5 2.8-0.1 5.6-1.2 8.4-0.9 5.9 0.6 11.9 1.7 17.6 3.5 5 1.6 9.4 4.7 14.3 6.6 3.2 1.2 6.9 1.2 10 2.6 3.5 1.4 6.9 3.2 9.6 5.8 2.6 2.6 3.8 6.2 5.8 9.2q0.1 0.2 0.3 0.3c2.4 2.1 4.6 4.3 7.2 6.2 2.6 1.9 5.7 3.1 8.2 5.1 2.4 1.8 4.5 4 6.4 6.3 2.2 2.9 4.2 5.9 5.7 9.2 2.6 5.7 4.2 11.7 6.3 17.6 3.1 8.9 7.5 17.3 9.1 26.5 1.6 9.3 1.9 18.9 0.4 28.1-3.2 19.1-6.6 38.7-14.4 56.4-2.3 5.2-10.6 4.9-14.4 9.1-3.9 4.3-4.5 10.9-8 15.6-1.6 2.2-5.4 2.2-6.8 4.5-6 9.6-9.5 20.5-15.2 30.3-2.4 4.3-5.2 8.7-9.1 11.8-6.5 5.2-14.7 8-21.6 12.8-3.5 2.6-5.6 7.1-9.4 9.1-9.8 5.2-20.6 7.9-30.7 12.2-1.2 0.5-2.1 1.5-3.2 2-5.5 2.8-11.1 5.5-16.7 8-4.2 1.8-8.2 4.5-12.7 4.9-3.4 0.4-6.5-2.2-9.9-2.6-2.6-0.4-5.3 0-7.9 0.4-3.1 0.4-6.3 0.8-9.1 2-4 1.8-7 5.8-11.2 7-2.1 0.7-4.7-0.3-6.4-1.7-2.1-1.6-2.1-5-4.2-6.6-1.6-1.2-3.9-0.5-5.9-0.9-4.4-1-9.4-0.8-13.2-3.3-2.9-1.8-3.8-5.6-5.3-8.7-1.1-2-0.5-5.2-2.5-6.4-2-1.3-4.8 0.5-7.2 0.4-1.7-0.1-4.2 0.4-4.9-1.2-1-2.3 2-5.1 1.1-7.5-0.5-1.6-2.9-2.1-4.5-1.9-2.4 0.2-4.1 2.9-6.5 2.8-2.3-0.1-4.2-2.1-6-3.6-2.8-2.4-5.4-5.1-7.5-8.1-0.8-1.1-1.2-2.5-1.2-3.9-0.1-1.6 1.5-3 1-4.5-0.4-1.3-2.7-1.4-3.3-2.6-0.6-1.2 0.7-2.7 0.2-3.9-0.2-0.6-1.2 0-1.8-0.1-3.1-0.8-6.5-1.1-9.3-2.8-1.2-0.6-1.8-2.3-1.7-3.7 0.1-1.7 2.6-3 2.3-4.7-0.3-1.6-2.3-2.4-3.6-3.3-1.1-0.7-2.5-0.8-3.6-1.3-0.1-0.1-0.1-0.3 0-0.4 0.2-1.1 0.2-2.3 0.7-3.3 0.7-1.3 2.1-2.1 2.8-3.4 0.6-1.3 1.1-2.7 1.2-4.1 0-0.7-0.2-1.8-0.9-2-2.2-0.7-4.7-0.1-7-0.7-1-0.2-2.1-0.8-2.8-1.7-0.9-1-1.7-2.4-1.7-3.8 0-5.3 1.7-10.7 1.7-16.1 0-2.4-0.7-4.8-1.5-7.2-1-2.8-3.2-5.2-3.8-8.1-0.5-2.3 0-4.7 0.6-7 0.6-2.4 2.1-4.5 3-6.8 0.9-2.2 2-4.3 2.5-6.7 0.4-2.4 0.2-4.9 0.1-7.3 0-3.9-0.8-7.8-0.3-11.6 0.4-3.8 1.4-7.6 3.2-11 1.7-3.2 4.6-5.6 6.8-8.5 1-1.3 1.9-2.6 2.7-4 1-2.1 1.8-4.4 2.6-6.6 1.1-3.1 1.6-6.3 2.9-9.3 1.8-4.4 3.5-8.9 6.4-12.7 2-2.6 5.6-3.6 8-5.9 2-2 3.6-4.5 5.3-6.8 2-2.8 3.3-6.1 5.8-8.5 1.8-1.7 4.8-1.5 6.5-3.2 1.8-1.8 1.8-4.9 3.6-6.7 3.4-3.4 8.1-5.3 11.5-8.7 2.3-2.2 3.6-5.2 5.3-7.9 1.9-3 2.9-6.4 5.3-8.9 1.7-1.8 4.2-2.6 6.5-3.4 3.8-1.4 8-1.7 11.9-3.1 1.7-0.6 3-1.9 4.6-2.8 3.9-2.5 8-4.9 11.9-7.6 2.6-1.8 4.8-4.4 7.6-6.1 2.7-1.6 5.7-2.7 8.8-3.7 1.4-0.5 3-0.2 4.4-0.6 1.6-0.5 2.9-1.7 4.5-2.2 2.6-0.8 5.4-1.3 8.1-1.7 2.1-0.3 4.2 0 6.2-0.2zm128 17.1c2.1 0 4.9 2 5 3.8 0.3 3 6.2 2.8 6.4 5.4 0.6 7.6 6.5 2.2 6.5 12.3 0 1.6 4.2 2.8 5.4 3.8 3.8 3.2 4.1 10.9 5.4 15 1.2 3.6 0.1 6.2 0.1 8.7 0.1 7.3-5.6 8-6.8 2.6-0.6-2.7-5.1-5.9-5.1-6.2-0.3-3.9-3.6-2.6-4.2-4.9-1.8-6.5 5.3-0.6 3.3-8.9-0.7-2.8-2.1-4-2.3-4.8-2.6-7.8-8.7-4.1-8.8-6.7-0.1-3.5-6-0.8-7.2-2.5-4.7-6.3 2.1-6.5-1.1-11.9-1.7-3-0.8-1.9-0.6-5.1 1.8-0.7 1.4-0.6 3.4-0.6q0.3 0 0.6 0zm-6.4 196.3c3.1-2.6 7.2-3.2 7.3-6.4 0.2-13-2.1-7.2 5.8-15.7 2.4-2.5 7.2-4 6.9-1-1 10.6 6 2.4 3.3 11.5-3.6 12-11.9 9.2-8.7 15.2 4.2 8-5.6 6.1-2.1 12.3 3.4 6-0.4 11.7-7.4 11.4-14.6-0.7-8.2 0.1-14.5 4.3-10.3 6.7-10.6-2.7-8.2-4.2 2.1-1.3 3.1-7.9 5.1-9.5 6.6-4.9 0.3-15.6 10.2-14.2 1.3 0.2-0.3-1.5 2.3-3.7zm-44.4 62.8c2.2-6.8 3-3.1 7.7-6.1 3.3-2.1 4.3-5.1 4.8-7.6 1.5-7.2 6-7.8 7.1-2.3 0.6 2.9 0.1 6.9 0.1 8.7 0.2 5.8-4 4.8-3.6 8.4 1.3 10.7-7.8 6.9-9.9 12.3-1.9 5.1-11 8.7-15.5 8.6-11.4-0.4-20 7.7-27.8 7.9-15.8 0.5-1.2-11.2 0.9-11.2 6.3 0.2 11.8-4.1 14.4-4.7 4.7-1.1 4.3-4.6 5-5.1 3.1-2.3 4-10.7 15.4-8.3 0.7 0.1 1.2 0.2 1.4-0.6zm37.3-101.9c9.8-5.5-2.7-11 6.8-15.3 5-2.3-2.2-21.1-2.3-21.2-5.6-3.6-4.6 22.1-13.4 24.8-1.8 0.5-1.7 4-4.5 4.5-10.1 2.1-0.9 10.2-10.3 10.3-4 0-9.5 6.5-8.1 9.6 1.7 3.5-1.1 9.2-2.9 9.5-3.3 0.7-7.1 9.5-10.8 10.5-1.8 0.4-0.2 9.7-11.7 13.8-2 0.7-6.1 3.4-6.2 3.4-5 1-5.5 6.5-4.7 6.6 0.3 2.8 12.1-4.6 12.9-4.7 6-0.8 4.5-3.8 9.5-4.2 4.8-0.4 7.3-3 11.1-5 10.2-5.4 10.3-14.7 13.7-17 8-5.2 2.9-9.3 5-10.7 5.3-3.7 0.8-12.8 6.7-14.2 3.1-0.8 6.1 1 9.2-0.7z"/>
	<path id="&lt;Path&gt;" class="s26" d="m340.4 406.1c9.3-5.5 6.1-12.5 8.3-19.5 0.3-1 2.1-1.1 2.5-2.1 1.1-3 0.5-6.6 1.9-9.6 1.5-3.3 5.8-4.9 6.8-2.5 1.2 2.9 2 10.3 5.5 11.9 1.6 0.8 3.8 1.2 5.5-0.7 1.9-2.2 1.9-6.8 8.1-1.5 1.1 0.9 0.9 3.2 2.3 3.6 1.8 0.5 4.3 0 5.5-1.5 1.8-2.4 0.4-6.4 2.3-8.8 1.1-1.4 4.3 0.7 5.5-0.7 1.8-2.4 0.4-6.3 2-8.9 1.2-1.9 4.5-1.6 5.7-3.4 1.7-2.6 0.8-6.3 2.3-8.9 1.3-2.4 4.3-3.5 5.9-5.7 1.3-1.9 1.9-4.2 2.6-6.5 0.8-2.5 0.9-5.3 1.9-7.7 0.9-2.1 2.8-3.7 3.8-5.7 1.2-2.4 2.1-5 2.8-7.6 0.8-2.6 2.1-5.3 1.9-8-0.2-6.3-3.5-12.4-3-18.6 0.3-3.7 3.1-6.9 5.3-9.9 0.7-0.8 2.3-1.8 3-1.1 1.9 1.7 0.9 5.6 3.1 6.8 1.5 0.9 6.4-2.9 7.2-4.5 8.6-17.7-1.6-20.9-3.4-38.3-0.4-3.1 1.5-20.9 8.3-11.5 6.7 9.1 2.3 26.5 7.6 32.4 2.3 2.5 6.4-4.6 6.4-8 0.1-13.4-2-27-6-39.8-4.8-15.2-26.5-42.8-25.2-54.7 0.2-2.5 3.7-3.5 4.9-5.7 1-2 1.6-4.3 1.5-6.5-0.3-4.7-2.7-9.7-5.1-13.8-3.2-5.3-9.2-8.2-13.3-12.9-3-3.4-6.1-7.1-7.9-11.3-2.3-5.2 0.1-13.9-1.2-16.7-4-9-10.4-7-12.9-9.8-1.7-1.9-1.1-4.1-2.2-6.5-1-2-4.2-2.1-5.7-3.8-2.2-2.4-3.4-5.4-5.1-8.1-1.1-1.6-1.7-3.6-3.2-4.8-4.5-3.3-9.7-5.4-14.4-8.3-1.8-1.1-3.9-1.9-5.2-3.6-1.6-2.1 3.1-4.8-8.5-11.2q-1.1-0.6-2.2-1.2c86.2 34.2 147.1 118.4 147.1 216.8 0 128.7-104.3 233-233.1 233-128.7 0-233-104.3-233-233 0-14.1 1.2-27.8 3.6-41.2 0.7 6.3 4.7 5 5.1 9.7 0.2 3.1-0.5 6.3-1 9.4-0.7 4.5-2.6 8.8-2.6 13.3 0 1.6 2.3 2.5 2.6 4.2 0.4 2.2-1.4 4.6-0.8 6.8 1 3 5.5 4.8 5.4 7.9-0.5 8-4.3 15.4-7.2 22.8-0.9 2 0.6 2.6 1.8 2.2 2.9-0.7 6.3-2.2 8.7-3.1 2.8-1 2.5 0.7 1.2 2.8-2.6 4.2-5.6 8.6-6.4 13.6-0.8 4.4 2.2 15.6 7.5 11.7 4.8-3.4 7.7-8.9 11.8-13.2 3.7-4 8.6-3 6.8 4.5-1.8 7.9-5.1 15.4-7.2 23.1-1.4 5.3-3.6 10.5-3.4 16 0.1 2.8 1.4 6.7 4.2 7.5 8.5 2.5 14.2-7 18.9-10.2 6.7-4.5 4.6 4.4 4.2 8-4.8 36.7 5 25.2 20.2 24.6 15.2-0.6 9 5.9 13.1 9.1 2.7 2.1 7.4 0.6 9.9 3 5 4.8 6.3 12.9 11.7 17.4 7.5 6.3 38.8 14.4 50.4 20.1 8.8 4.4 10.1 14.6 15.5 19.7 2.1 1.9 5.3 3.4 8 2.7 3.1-0.9 3.8-5.8 6.8-6.8 2.5-0.9 5.1 2.5 7.6 1.8 8.9-2.4 19.9-13.9 34.8-12.5 7.2 0.8 16 8.3 23.5 5 2.7-1.2 3.3-4.9 5.7-6.5 2.6-1.7 6-1.8 8.7-3.4 2.7-1.5 5-3.6 7.2-5.7 1.6-1.5 5.3-5.6 8.6-9.1 10.6-11.4 8.7-4.6 21-4.9 2.5 0 5-0.6 7.2-1.9z"/>
	<path id="&lt;Path&gt;" class="s27" d="m42.6 180.6c1.8-2.6 4.8-3.9 6.9-6.2 2.1-2.3 3.1-5.7 5.7-7.6 2.1-1.5 5.6-0.4 7.6-2.1 2-1.7 1.7-5.1 3.4-7.2 3-3.6 6.8-6.4 10.4-9.4 4.1-3.5 8-7.1 12.5-10 1.1-0.7 2.9-1.5 3.9-0.6 0.8 0.7-0.6 2.2-1.2 3.1-2.2 3.2-4.4 6.3-7 9.1-2.1 2.1-5.2 3.2-7 5.6-1.1 1.6-0.5 4-1.4 5.8-1.2 2.5-3.3 4.4-4.6 6.8-0.4 0.6-0.7 1.6-0.3 2.1 0.5 0.8 1.8 1.6 2.6 1.2 5.1-2.1 10.1-4.7 14.3-8.3 4.2-3.5 6.5-9 10.7-12.6 1.8-1.7 4.9-1.4 6.8-3 4.7-4 8.2-9.3 12.8-13.5 1.4-1.4 3.2-2.3 5-3.1 0.7-0.2 1.8-0.4 2.2 0.2 0.4 0.9-0.2 2.1-0.7 3-2.7 5-6.2 9.5-8.7 14.6-0.3 0.5 0.4 1.4 0.9 1.4 1.6 0 3.1-1.2 4.7-1.3 0.3 0 0.3 0.7 0.2 1-0.9 2-2 3.9-3.3 5.7-3 4.1-6.8 7.7-9.8 11.9-3.5 4.8-6.1 10.1-9.7 14.8-1.4 1.8-3.1 3.5-5.1 4.5-0.6 0.4-1.5-1.5-2-0.9-1.2 1.5-1 3.8-1.8 5.6-0.4 0.9-1.6 1.3-1.8 2.2-0.1 0.6 0.7 1.5 1.2 1.3 3.1-1.4 5.5-4.1 8.6-5.5 1.3-0.6 3.2 0.4 4.2-0.6 2.4-2 3.2-5.3 5.2-7.7 2.8-3.4 6.2-6.4 9.1-9.8 0.4-0.6 0.3-1.5 0.8-2 0.5-0.5 1.3-0.6 1.9-1 1-0.8 1.7-2 2.7-2.7 0.5-0.3 1.3-0.6 1.7-0.2 0.4 0.4 0.2 1.2 0 1.7-1.9 3.1-4.3 5.9-6.3 8.8-2.1 3.1-4.4 5.9-6.1 9.2-0.2 0.6 0 1.5 0.6 1.7 1.4 0.5 3-0.3 4.5 0 0.7 0.2 0.8 1.5 1.5 1.5 1.9 0.1 4-0.1 5.5-1.3 2.8-2.4 4.4-6.1 6.8-8.9 0.9-1 2.3-1.5 3.1-2.6 0.7-1 0.7-2.3 1.1-3.4 0.9-2.7 1.4-5.6 2.8-8.1 0.5-0.8 1.9-0.8 2.5-1.5 0.6-0.8 0.3-2.1 0.9-2.9 1.4-1.8 3.9-2.8 5-4.9 0.4-0.6-1.2-0.8-1.3-1.5-0.1-0.8 0.1-2 0.8-2.5 6.2-4.2 12.8-8.1 19.7-11.4 1.1-0.6 2.5-0.4 3.7 0.1 0.5 0.2 0.8 1.2 0.4 1.7-2 2.4-5 3.9-7.1 6.3-0.3 0.4 0.5 1.1 0.4 1.6-0.1 0.9-1 1.7-0.8 2.6 0.2 0.5 1.3 0.3 1.7 0 0.9-0.8 0.8-2.6 1.9-3.1 2.7-1.5 6.3-1.3 9-2.9 1.1-0.6 0.8-2.3 1.6-3.2 1.1-1.5 2.5-2.9 4.1-3.8 0.7-0.3 1.7 0 2.3 0.5 0.7 0.5 1.1 1.3 1.3 2.1 0.2 0.7-0.5 1.4-0.4 2.1 0.1 0.3 0.6 0.5 0.9 0.4 1.4-0.3 2.8-0.7 3.9-1.6 2.1-1.7 3.4-4.3 5.6-5.9 3.1-2.2 6.7-3.8 10.2-5.4 0.8-0.3 2-0.9 2.7-0.3 0.9 0.6 1.1 2.1 0.7 3.1-0.9 2.6-3.6 4.5-4.3 7.2-0.3 0.8 1.4 1 1.8 1.8 0.3 0.7-0.6 1.7 0 2.2 1.1 0.8 2.7 1.3 4.1 1 4.4-0.7 8.6-2.3 12.7-4 3.6-1.4 6.9-3.2 10.2-5.1 3.9-2.2 7.2-5.4 11.2-7.1 2.3-1 5.1-0.1 7.5-0.8 0.6-0.2 0.6-1.2 0.8-1.8 0.1-0.9-0.3-2 0.1-2.8 1.1-1.7 2.4-3.6 4.2-4.4 2.3-1.1 5.6-2.3 7.6-0.8 1.6 1.2 0.2 4.2-0.4 6.2-0.6 2.1-1.7 4.2-3.3 5.7-1.1 1.2-3.1 0.9-4.4 1.9-0.4 0.4-0.4 1.3-0.1 1.7 0.6 0.8 1.5 1.6 2.4 1.6 5.4-0.4 10.8-1.4 16-2.7 4.6-1.1 9.3-2.4 13.6-4.4 2-1 3.1-3.2 5.1-4.3 2.7-1.5 6.1-1.8 8.8-3.5 1.3-0.9 1.6-2.8 2.7-3.9 1.9-1.6 3.9-3.6 6.3-4.1 3-0.6 6 0.9 9.1 0.9 1.9 0 3.7-1 5.6-0.8 1.1 0.1 2.6 0.6 3.1 1.6 0.9 1.8 1.3 4.1 0.7 6-1 2.8-4.4 4.3-5.1 7.2-0.3 1.7 2.3 3 2.5 4.7 0.2 2.3-1.7 4.6-1.3 6.9 0.6 3.5 3 6.4 4.1 9.8 0.4 1.5 1.8 4.3 0.3 4.7-2 0.7-4.1-1.6-5.7-3.1-1.7-1.6-1.9-4.5-3.7-6-3.3-2.8-8-3.6-11-6.6-1.4-1.4-0.3-3.9-1.2-5.7-0.4-0.8-1.5-1.4-2.3-1.2-1.5 0.3-2.4 2.1-3.9 2.4-1.6 0.2-3.2-1.4-4.8-1.1-4.5 1-8.6 3.4-12.8 5.1-1.7 0.6-9 2.8-9.9 3.3-0.4 0.2-1 0.9-0.7 1.3 0.4 0.6 1.4 1 2.1 0.8 1.2-0.2 3.3-2.3 5.8-1.9 0.9 0.2 2.4 0.6 2.5 1 0.5 1.8 0.7 3.8 0.1 5.5-0.6 1.3-2.4 1.6-3.3 2.6-1.1 1.2-1.1 3.4-2.5 3.9-3.2 1.2-3.7-3.4-3.8-3.5-2.2-0.9-4.6-1.4-6.9-1-4.7 0.7-9.3 2.5-13.7 4.3-1.3 0.6-2.5 1.7-3.4 3-1.4 2-2.6 4.3-3.2 6.7-0.5 1.8-0.6 3.8-0.1 5.6 0.2 0.9 1.2 2.3 2 1.8 3.3-1.9 5.1-5.9 8.4-7.9 1.1-0.7 2.7 0.6 4 0.2 1.6-0.5 2.5-2.5 4.1-2.7 2.6-0.3 5.2 0.3 7.5 1.3 0.9 0.4 1.9 1.8 1.4 2.6-2 2.5-5.6 3.1-7.6 5.5-1 1.2-0.2 3.3-1.2 4.5-1.3 1.7-3.2 3-5.3 3.4-2 0.5-4-1.4-6-1.1-1.9 0.3-3.2 2.1-5 2.9-0.9 0.3-2.1-0.2-2.9 0.3-2.1 1.4-4 3.3-5.7 5.2-3.2 4-5.4 8.9-9 12.5-3.4 3.5-7.4 6.5-11.7 8.8-0.8 0.4-2.5-0.7-2.3-1.6 1-4.5 4.7-8.1 5.5-12.6 0.2-1.1-2.6-0.4-3.2 0.5-3 4.2-3.8 9.8-7 13.8-1.7 2.1-4.6 2.6-7 3.5-0.9 0.3-2.2 0.5-2.9-0.2-0.6-0.7-0.4-2 0-2.9 1-2.2 6.1-7.5 4-6.2-4 2.4-6.3 7-10 9.8-2.2 1.6-4.9 3.8-7.4 3.1-1.6-0.5 0.6-3.4 1.5-4.8 1.6-2.5 4.1-4.4 5.7-7 0.6-1 1.9-3.4 0.7-3.4-2-0.1-3.2 2.8-5.3 3.2-1.6 0.3-3.1-1.2-4.7-1.3-1.6-0.1-3.2 0.6-4.7 0.9-0.9 0.2-2.5 1.5-2.5 0.6-0.1-1.8 1-3.6 2.3-4.9 3.3-3.3 8-5.2 11.3-8.5 1.5-1.5 1.2-4.2 2.7-5.5 1.4-1.3 3.7-0.7 5.3-1.7 3.3-2.2 6.4-4.7 9.1-7.6 1.2-1.4 3.7-3.9 2.3-5.1-1.5-1.2-3.1 2.3-4.8 3-1.9 0.8-5.1 3.4-6 1.5-1.2-2.1 2.2-4.3 3.4-6.4 0.9-1.6 4.8-4.2 3-4.8-2.5-0.8-5 1.8-7 3.5-2.3 1.9-3.8 4.6-5.7 7-3.1 3.8-5.4 8.7-9.5 11.5-2.9 2.1-7.4 0.6-10.6 2.3-2.5 1.3-4.2 4-5.7 6.4-1.9 3.3-2.2 7.4-4.5 10.4-0.8 1.1-2.6 1.1-3.8 0.6-2.7-1-4.8-3.1-7.2-4.7-1.7-1.2-3.1-3-5.1-3.8-0.5-0.2-1.3 0.5-1.3 1.1-0.3 2.9 1.5 5.9 0.5 8.6-0.6 1.6-2.9 2.5-4.7 2.4-1.5-0.1-1.9-2.8-3.4-3-1.1-0.2-1.5 2.1-2.7 2.1-1.9 0-3.5-2-5.5-2.1-2.1-0.1-4.6 0-6.2 1.5-2.3 2.1-2.3 5.8-4.2 8.3-0.6 0.9-2.5 0.4-3 1.4-1.4 2.5-2 5.6-2.5 8.5-0.4 2.4 1.5 5.5-0.2 7.4-2.1 2.4-6.3 1.6-9.1 3.2-2.1 1.3-4.1 3.1-5.4 5.3-0.9 1.4 0.2 3.4-0.6 4.7-0.8 1.4-3.7 1.1-4 2.7-0.4 2.8 2 5.5 2.3 8.3 0.1 1.3 0 3.1-1.2 3.6-2.4 1-5.4-0.7-7.9 0.2-2 0.8-2.4 3.9-4.4 4.6-1.6 0.5-3.2-1.6-4.9-1.6-1.1 0.1-2.4 0.7-2.8 1.7-0.9 1.9 0.2 4.3-0.8 6.1-0.9 1.5-4.2 1.3-4.3 3-0.2 2.3 1.4 5 3.6 5.9 2.6 1.1 5.7-0.3 8.5-0.7 1.2-0.3 2.7-2.3 3.6-1.4 1 1.2 0 3.3-0.6 4.8-1.5 3.8-4.8 6.9-5.7 11-0.4 1.8 1.9 3.4 2.1 5.3 0.2 1.9-1.7 3.9-0.9 5.6 0.8 1.9 3 3.7 5.1 3.6 1.9 0 2.3-3.6 4.1-3.9 3-0.6 6 2.5 8.9 1.7 2.6-0.7 3.5-4.1 5.5-5.7 1.4-1 3.1-2.8 4.6-2.1 2.5 1.1 3.6 4 5.1 6.2 1.1 1.7 0.9 4.2 2.5 5.4 1.9 1.3 4.5 1.6 6.8 1.1 2.9-0.7 5.5-2.7 7.7-4.7 2.8-2.6 4.3-6.3 7.1-8.8 1.5-1.4 4.4-1 5.6-2.6 1.7-2.2 1.3-5.4 2.5-8 0.6-1.4 1.3-3.3 2.8-3.6 2.5-0.4 5 2.6 7.4 1.7 1.9-0.6 1.2-4.2 2.9-5.3 3.4-2 7.9-1.3 11.3-3.2 5.1-2.8 9.4-6.9 13.7-10.8 2-1.9 3.2-4.6 5.3-6.4 2.3-2 5.2-3 7.8-4.6 4.4-2.7 9.1-4.9 13.2-8.1 3.2-2.5 5.2-6.3 8.3-8.7 1.1-0.9 3.3-2 4-0.8 1 1.7-0.1 4.1-0.9 5.9-1.5 3-3.2 6.2-5.9 8.1-3.8 2.7-9 2.7-12.9 5.1-2.1 1.4-2.6 4.3-4.5 5.9-2.6 2.2-6.3 2.8-8.7 5.1-3.5 3.2-6.5 6.9-8.7 11-1.8 3.2-1.4 7.3-2.9 10.6-0.7 1.6-2.8 2.3-3.4 4-1.1 3.3-1.3 6.8-1.3 10.2 0 1.9 1.6 3.7 1.3 5.6-0.2 1.5-1.4 3.2-2.8 3.6-1.6 0.5-3.1-1.1-4.8-1.3-1.2-0.1-2.5 0.5-3.8 0.5-0.8-0.1-2 0-2.3-0.7-0.6-1.1 0-2.4 0.2-3.6 0.2-0.6 1.1-1.2 0.9-1.8-0.4-1.2-1.2-3.2-2.5-2.9-1.3 0.3-1 2.5-1.6 3.8-0.5 1.1-2.1 2.1-1.8 3.4 0.5 1.8 2.9 2.7 3.6 4.4 0.6 1.3 1 3.1 0.2 4.2-1.3 1.8-3.6 3.1-5.9 3.5-3.8 0.7-7.9-1.3-11.6-0.1-7.4 2.4-12.2 9.5-11.9 13.2 0.1 1.9 3.4 2.9 5.5 2.3 1.5-0.3 3-1.6 4.5-1.3 1.3 0.3 1.5 3.1 2.8 2.8 2.3-0.4 3-4.4 5.3-4.4 3.2-0.1 5.5 3.8 8.8 4.2 1.3 0.1 1.8-2.2 3.1-2.8 0.9-0.4 2 0.5 2.9 0.1 1-0.4 1.3-1.7 2.3-2.2 2-0.8 4.2-0.8 6.2-1.6 1-0.3 1.4-1.6 2.4-1.7 1-0.1 1.8 1.4 2.9 1.2 1.2-0.2 1.8-1.7 3-2.2 1-0.5 2.7 0.5 3.4-0.4 0.7-0.9-0.8-2.4-0.2-3.4 1.3-2.4 2.9-5.2 5.5-6 2-0.6 3.8 2.9 5.8 2.4 1.4-0.4 0.6-3 1.5-4.2 1.5-2 3.1-4.3 5.4-5.2 1.7-0.6 3.8 0.1 5.3 1.1 1.2 0.7 0.8 2.8 1.9 3.6 1.2 0.9 3.4 2 4.4 0.9 1.2-1.2-0.5-3.4-0.3-5.1 0-0.8 0.4-1.6 0.9-2.2 0.5-0.5 1.6-0.2 2-0.8 0.8-1.2 0.1-3.3 1.2-4 1.8-1.1 4.1-0.1 6.1-0.6 1.4-0.4 2.4-2 3.9-2.1 2.2-0.1 4.9 0 6.6 1.4 1 0.9 0.1 2.7-0.5 3.8-0.8 1.9-2.5 3.2-3.5 5-0.3 0.5 0.1 1.3-0.2 1.9-0.3 0.9-1.7 1.6-1.3 2.4 0.4 0.8 1.8 0.3 2.7 0.2 0.5-0.1 0.9-0.7 1.4-0.8 1.8-0.6 3.8-1.5 5.7-1.2 1.1 0.2 2.3 1.2 2.4 2.4 0.3 2.3-0.4 4.8-1.5 6.9-0.4 0.8-2-0.1-2.5 0.6-0.8 0.8-0.1 2.6-1 3.4-1.3 1.2-3.7 0.7-5 1.9-0.8 0.7-0.8 2-0.7 3.1 0.1 0.7 1.1 0.9 1.4 1.5 0.2 0.6 0.4 1.4 0.1 1.9-1.4 1.8-3.1 3.5-5.1 4.6-1.2 0.8-3 0-4.2 0.7-0.8 0.4-0.7 1.9-1.5 2.4-0.8 0.5-2.1-0.4-2.9 0.1-0.6 0.4-0.8 1.4-0.6 2.1 0.6 1.8 1.7 3.5 2.9 5.1 0.4 0.5 1.3 0.5 1.6 1 0.3 0.5 0.6 1.4 0.1 1.7-2.6 1.7-6.1 1.6-8.3 3.6-1.5 1.2-2 3.4-2 5.3-0.1 1.6 2 2.8 1.8 4.4-0.2 1.3-1.7 2.1-2.9 2.6-1.1 0.5-2.9-0.8-3.6 0.1-0.8 1.1 1.1 3 0.4 4.2-0.9 1.6-2.7 2.5-4.4 3.1-1.6 0.6-3.6 1-5.3 0.4-1.5-0.6-2.8-2-3.6-3.5-0.3-0.8 0.7-1.8 0.7-2.7 0-0.4-0.8-0.6-0.8-1 0.2-1.2 1.2-2.2 1.3-3.4 0.1-1 0.1-2.3-0.7-2.9-0.5-0.5-1.2 0.6-1.5 1.2-0.5 1 0.2 2.5-0.6 3.3-0.8 0.8-2.4 0.3-3.6 0.7-1.2 0.4-2 1.7-3.3 1.8-1.5 0.1-2.9-0.7-4.3-1.2-0.8-0.2-1.3-1.3-2-1.1-1.8 0.4-3 2.2-4.7 2.7-0.9 0.3-2.1-0.8-2.8-0.2-0.5 0.6 1.5 0.9 1.4 1.7-0.1 0.9-1.7 1-1.9 1.9-0.2 1.1 1.5 2.2 1 3.2-0.5 0.9-2 1.1-3.1 1-1.7-0.2-3.5-0.8-5-1.8-2.4-1.6-4-4.4-6.5-5.9-1-0.5-2.4-0.1-3.3 0.4-0.6 0.3-1 1.2-0.8 1.8 0.5 1.8 2.2 3.2 2.6 5 0.1 0.6-1.5 0.3-1.5 0.9 0.1 1.1 1.4 2 1.6 3.1 0 0.8-1.1 1.4-1 2.2 0.3 1.6 1.8 2.8 2.2 4.4 0.2 0.8-1.1 1.7-0.7 2.4 0.9 1.6 2.9 2.1 4 3.5 0.5 0.7 0.9 1.7 0.8 2.6-0.2 1.2-0.7 2.5-1.6 3.5-0.7 0.8-1.9 1.1-3 1.4-1.5 0.4-3 0.8-4.5 0.7-1-0.1-1.8-1.2-2.8-1.2-0.9 0-1.5 1.2-2.3 1.3-1 0-1.9-1.6-2.8-1.1-0.8 0.5 0.5 2.6-0.5 3-1.7 0.5-3.5-1.1-5.3-1.1-2.3 0.1-4.4 1.8-6.7 1.4-1.6-0.3-2.1-3-3.7-3.3-1.3-0.2-2.9 1-3.2 2.3-0.5 2.3 1.4 4.6 1.3 6.9 0 0.7-1 1.2-1.7 1.1-2-0.1-3.8-1.4-5.8-1.7-1.7-0.2-3.6 0.7-5.3 0.3-1.1-0.3-1.6-1.7-2.6-2.3-0.8-0.3-1.9 0.1-2.7-0.2-1.4-0.7-2.3-2.2-3.7-2.8-0.3-0.1-0.2 1 0.1 1.2 1.4 1.4 3.3 2.2 4.6 3.6 0.5 0.6 0 1.9 0.6 2.2 2.7 1.4 6 1.1 8.7 2.5 0.9 0.5 1.1 1.8 1.4 2.7 0.3 1.1-0.1 2.4 0.5 3.3 0.8 1.1 2.2 1.8 3.5 2.1 1.3 0.3 2.7-0.4 4.1-0.3 0.8 0 1.6 0.6 2.4 0.4 2.2-0.6 4.1-2.3 6.4-2.7 1.1-0.2 2.4 0.4 3.2 1.1 3.6 3.5 5.9 8.2 9.8 11.3 1.2 0.9 3.1-0.2 4.6 0.3 2 0.7 3.5 2.5 5.5 3.2 1.1 0.4 2.3 0.1 3.4-0.2 1.6-0.4 2.9-1.9 4.5-1.9 1.3 0 2.8 0.6 3.6 1.7 0.8 1.1 1 2.7 0.4 3.9-0.5 1-2 1.4-3.1 1.4-2.6 0.1-5-0.6-7.5-0.9-0.7-0.1-1.4 0.1-1.9-0.2-1.4-0.7-2.3-2.2-3.8-2.6-1.2-0.3-2.5 0.4-3.7 0.8-1.2 0.3-2.2 1.3-3.4 1.2-2-0.2-3.6-1.6-5.5-2.1-0.8-0.2-2.6-0.5-2.6 0.3 0 1.1 1.7 1.3 2.6 1.8 0.9 0.6 2.2 0.6 2.9 1.4 0.7 0.8 1.5 2 1.2 3-0.5 1.2-2.6 1-3.2 2.1-0.4 0.9-0.2 2.2 0.4 2.9 1.2 1.3 3.4 1.4 4.8 2.5 0.6 0.6 1 1.6 1.1 2.5 0.1 0.7-1 1.4-0.7 2.1 0.4 0.9 1.6 1 2.4 1.6 0.8 0.6 2 1 2.5 1.9 0.3 0.7-0.6 1.7-0.2 2.5 0.4 0.8 1.8 0.8 2.3 1.6 0.5 0.7 0.1 1.8 0.7 2.4 1.3 1.6 3.2 2.7 5.1 3.5-3.1-0.8-6.3-1.3-9.2-2.5-7.2-2.9-14.4-5.8-21.1-9.7-3.5-2-6-5.7-9.4-7.9-4.9-3.1-10.9-4.4-15.6-7.8-7-5.1-13.3-11.1-19.1-17.4-8.3-9-9.5-14.4-22-25-4.2-3.6-12.7-8.3-13.2-9.9-5.1-13.7-6.7-27.1-15.2-41.3-2-3.4-0.6-8-1.9-11.7-3-8.6-10.2-22.9-11-25-0.4-1.3 1.6-7.6 1.2-11.4-1.8-13.8-3.7-27.7-8-40.9-0.4-1.2 2.4-7 2.3-10.6-0.2-4.8-3.2-12.4-3.1-14 0.2-1.6 5.6-13.1 8-19.7 4.7-12.8 6.5-23.5 14.6-35.1z"/>
	<path id="&lt;Path&gt;" class="s28" d="m108 180.9c2.8-3.4 6.2-6.4 9.1-9.8 0.4-0.6 0.3-1.5 0.8-2 0.5-0.5 1.3-0.6 1.9-1 1-0.8 1.7-2 2.7-2.7 0.5-0.3 1.3-0.6 1.7-0.2 0.4 0.4 0.2 1.2 0 1.7-1.9 3.1-4.3 5.9-6.3 8.8-2.1 3.1-4.4 5.9-6.1 9.2-0.2 0.6 0 1.5 0.6 1.7 1.4 0.5 3-0.3 4.5 0 0.7 0.2 0.8 1.5 1.5 1.5 1.9 0.1 4-0.1 5.5-1.3 2.8-2.4 4.4-6.1 6.8-8.9 0.9-1 2.3-1.5 3.1-2.6 0.7-1 0.7-2.3 1.1-3.4 0.9-2.7 1.4-5.6 2.8-8.1 0.5-0.8 1.9-0.8 2.5-1.5 0.6-0.8 0.3-2.1 0.9-2.9 1.4-1.8 3.9-2.8 5-4.9 0.4-0.6-1.2-0.8-1.3-1.5-0.1-0.8 0.1-2 0.8-2.5 6.2-4.2 12.8-8.1 19.7-11.4 1.1-0.6 2.5-0.4 3.7 0.1 0.5 0.2 0.8 1.2 0.4 1.7-2 2.4-5 3.9-7.1 6.3-0.3 0.4 0.5 1.1 0.4 1.6-0.1 0.9-1 1.7-0.8 2.6 0.2 0.5 1.3 0.3 1.7 0 0.9-0.8 0.8-2.6 1.9-3.1 2.7-1.5 6.3-1.3 9-2.9 1.1-0.6 0.8-2.3 1.6-3.2 1.1-1.5 2.5-2.9 4.1-3.8 0.7-0.3 1.7 0 2.3 0.5 0.7 0.5 1.1 1.3 1.3 2.1 0.2 0.7-0.5 1.4-0.4 2.1 0.1 0.3 0.6 0.5 0.9 0.4 1.4-0.3 2.8-0.7 3.9-1.6 2.1-1.7 3.4-4.3 5.6-5.9 3.1-2.2 6.7-3.8 10.2-5.4 0.8-0.3 2-0.9 2.7-0.3 0.9 0.6 1.1 2.1 0.7 3.1-0.9 2.6-3.6 4.5-4.3 7.2-0.3 0.8 1.4 1 1.8 1.8 0.3 0.7-0.6 1.7 0 2.2 1.1 0.8 2.7 1.3 4.1 1 4.4-0.7 8.6-2.3 12.7-4 3.6-1.4 6.9-3.2 10.2-5.1 3.9-2.2 7.2-5.4 11.2-7.1 2.3-1 5.1-0.1 7.5-0.8 0.6-0.2 0.6-1.2 0.8-1.8 0.1-0.9-0.3-2 0.1-2.8 1.1-1.7 2.4-3.6 4.2-4.4 2.3-1.1 5.6-2.3 7.6-0.8 1.6 1.2 0.2 4.2-0.4 6.2-0.6 2.1-1.7 4.2-3.3 5.7-1.1 1.2-3.1 0.9-4.4 1.9-0.4 0.4-0.4 1.3-0.1 1.7 0.6 0.8 1.5 1.6 2.4 1.6 5.4-0.4 10.8-1.4 16-2.7 4.6-1.1 9.3-2.4 13.6-4.4 2-1 3.1-3.2 5.1-4.3 2.7-1.5 6.1-1.8 8.8-3.5 1.3-0.9 1.6-2.8 2.7-3.9 1.9-1.6 3.9-3.6 6.3-4.1 3-0.6 6 0.9 9.1 0.9 1.9 0 3.7-1 5.6-0.8 1.1 0.1 2.6 0.6 3.1 1.6 0.9 1.8 1.3 4.1 0.7 6-1 2.8-4.4 4.3-5.1 7.2-0.3 1.7 2.3 3 2.5 4.7 0.2 2.3-1.7 4.6-1.3 6.9 0.6 3.5 3 6.4 4.1 9.8 0.4 1.5 1.8 4.3 0.3 4.7-2 0.7-4.1-1.6-5.7-3.1-1.7-1.6-1.9-4.5-3.7-6-3.3-2.8-8-3.6-11-6.6-1.4-1.4-0.3-3.9-1.2-5.7-0.4-0.8-1.5-1.4-2.3-1.2-1.5 0.3-2.4 2.1-3.9 2.4-1.6 0.2-3.2-1.4-4.8-1.1-4.5 1-8.6 3.4-12.8 5.1-1.7 0.6-9 2.8-9.9 3.3-0.4 0.2-1 0.9-0.7 1.3 0.4 0.6 1.4 1 2.1 0.8 1.2-0.2 3.3-2.3 5.8-1.9 0.9 0.2 2.4 0.6 2.5 1 0.5 1.8 0.7 3.8 0.1 5.5-0.6 1.3-2.4 1.6-3.3 2.6-1.1 1.2-1.1 3.4-2.5 3.9-3.2 1.2-3.7-3.4-3.8-3.5-2.2-0.9-4.6-1.4-6.9-1-4.7 0.7-9.3 2.5-13.7 4.3-1.3 0.6-2.5 1.7-3.4 3-1.4 2-2.6 4.3-3.2 6.7-0.5 1.8-0.6 3.8-0.1 5.6 0.2 0.9 1.2 2.3 2 1.8 3.3-1.9 5.1-5.9 8.4-7.9 1.1-0.7 2.7 0.6 4 0.2 1.6-0.5 2.5-2.5 4.1-2.7 2.6-0.3 5.2 0.3 7.5 1.3 0.9 0.4 1.9 1.8 1.4 2.6-2 2.5-5.6 3.1-7.6 5.5-1 1.2-0.2 3.3-1.2 4.5-1.3 1.7-3.2 3-5.3 3.4-2 0.5-4-1.4-6-1.1-1.9 0.3-3.2 2.1-5 2.9-0.9 0.3-2.1-0.2-2.9 0.3-2.1 1.4-4 3.3-5.7 5.2-3.2 4-5.4 8.9-9 12.5-3.4 3.5-7.4 6.5-11.7 8.8-0.8 0.4-2.5-0.7-2.3-1.6 1-4.5 4.7-8.1 5.5-12.6 0.2-1.1-2.6-0.4-3.2 0.5-3 4.2-3.8 9.8-7 13.8-1.7 2.1-4.6 2.6-7 3.5-0.9 0.3-2.2 0.5-2.9-0.2-0.6-0.7-0.4-2 0-2.9 1-2.2 6.1-7.5 4-6.2-4 2.4-6.3 7-10 9.8-2.2 1.6-4.9 3.8-7.4 3.1-1.6-0.5 0.6-3.4 1.5-4.8 1.6-2.5 4.1-4.4 5.7-7 0.6-1 1.9-3.4 0.7-3.4-2-0.1-3.2 2.8-5.3 3.2-1.6 0.3-3.1-1.2-4.7-1.3-1.6-0.1-3.2 0.6-4.7 0.9-0.9 0.2-2.5 1.5-2.5 0.6-0.1-1.8 1-3.6 2.3-4.9 3.3-3.3 8-5.2 11.3-8.5 1.5-1.5 1.2-4.2 2.7-5.5 1.4-1.3 3.7-0.7 5.3-1.7 3.3-2.2 6.4-4.7 9.1-7.6 1.2-1.4 3.7-3.9 2.3-5.1-1.5-1.2-3.1 2.3-4.8 3-1.9 0.8-5.1 3.4-6 1.5-1.2-2.1 2.2-4.3 3.4-6.4 0.9-1.6 4.8-4.2 3-4.8-2.5-0.8-5 1.8-7 3.5-2.3 1.9-3.8 4.6-5.7 7-3.1 3.8-5.4 8.7-9.5 11.5-2.9 2.1-7.4 0.6-10.6 2.3-2.5 1.3-4.2 4-5.7 6.4-1.9 3.3-2.2 7.4-4.5 10.4-0.8 1.1-2.6 1.1-3.8 0.6-2.7-1-4.8-3.1-7.2-4.7-1.7-1.2-3.1-3-5.1-3.8-0.5-0.2-1.3 0.5-1.3 1.1-0.3 2.9 1.5 5.9 0.5 8.6-0.6 1.6-2.9 2.5-4.7 2.4-1.5-0.1-1.9-2.8-3.4-3-1.1-0.2-1.5 2.1-2.7 2.1-1.9 0-3.5-2-5.5-2.1-2.1-0.1-4.6 0-6.2 1.5-2.3 2.1-2.3 5.8-4.2 8.3-0.6 0.9-2.5 0.4-3 1.4-1.4 2.5-2 5.6-2.5 8.5-0.4 2.4 1.5 5.5-0.2 7.4-2.1 2.4-6.3 1.6-9.1 3.2-2.1 1.3-4.1 3.1-5.4 5.3-0.9 1.4 0.2 3.4-0.6 4.7-0.8 1.4-3.7 1.1-4 2.7-0.4 2.8 2 5.5 2.3 8.3 0.1 1.3 0 3.1-1.2 3.6-2.4 1-5.4-0.7-7.9 0.2-2 0.8-2.4 3.9-4.4 4.6-1.6 0.5-3.2-1.6-4.9-1.6-1.1 0.1-2.4 0.7-2.8 1.7-0.9 1.9 0.2 4.3-0.8 6.1-0.9 1.5-4.2 1.3-4.3 3-0.2 2.3 1.4 5 3.6 5.9 2.6 1.1 5.7-0.3 8.5-0.7 1.2-0.3 2.7-2.3 3.6-1.4 1 1.2 0 3.3-0.6 4.8-1.5 3.8-4.8 6.9-5.7 11-0.4 1.8 1.9 3.4 2.1 5.3 0.2 1.9-1.7 3.9-0.9 5.6 0.8 1.9 3 3.7 5.1 3.6 1.9 0 2.3-3.6 4.1-3.9 3-0.6 6 2.5 8.9 1.7 2.6-0.7 3.5-4.1 5.5-5.7 1.4-1 3.1-2.8 4.6-2.1 2.5 1.1 3.6 4 5.1 6.2 1.1 1.7 0.9 4.2 2.5 5.4 1.9 1.3 4.5 1.6 6.8 1.1 2.9-0.7 5.5-2.7 7.7-4.7 2.8-2.6 4.3-6.3 7.1-8.8 1.5-1.4 4.4-1 5.6-2.6 1.7-2.2 1.3-5.4 2.5-8 0.6-1.4 1.3-3.3 2.8-3.6 2.5-0.4 5 2.6 7.4 1.7 1.9-0.6 1.2-4.2 2.9-5.3 3.4-2 7.9-1.3 11.3-3.2 5.1-2.8 9.4-6.9 13.7-10.8 2-1.9 3.2-4.6 5.3-6.4 2.3-2 5.2-3 7.8-4.6 4.4-2.7 9.1-4.9 13.2-8.1 3.2-2.5 5.2-6.3 8.3-8.7 1.1-0.9 3.3-2 4-0.8 1 1.7-0.1 4.1-0.9 5.9-1.5 3-3.2 6.2-5.9 8.1-3.8 2.7-9 2.7-12.9 5.1-2.1 1.4-2.6 4.3-4.5 5.9-2.6 2.2-6.3 2.8-8.7 5.1-3.5 3.2-6.5 6.9-8.7 11-1.8 3.2-1.4 7.3-2.9 10.6-0.7 1.6-2.8 2.3-3.4 4-1.1 3.3-1.3 6.8-1.3 10.2 0 1.9 1.6 3.7 1.3 5.6-0.2 1.5-1.4 3.2-2.8 3.6-1.6 0.5-3.1-1.1-4.8-1.3-1.2-0.1-2.5 0.5-3.8 0.5-0.8-0.1-2 0-2.3-0.7-0.6-1.1 0-2.4 0.2-3.6 0.2-0.6 1.1-1.2 0.9-1.8-0.4-1.2-1.2-3.2-2.5-2.9-1.3 0.3-1 2.5-1.6 3.8-0.5 1.1-2.1 2.1-1.8 3.4 0.5 1.8 2.9 2.7 3.6 4.4 0.6 1.3 1 3.1 0.2 4.2-1.3 1.8-3.6 3.1-5.9 3.5-3.8 0.7-7.9-1.3-11.6-0.1-7.4 2.4-12.2 9.5-11.9 13.2 0.1 1.9 3.4 2.9 5.5 2.3 1.5-0.3 3-1.6 4.5-1.3 1.3 0.3 1.5 3.1 2.8 2.8 2.3-0.4 3-4.4 5.3-4.4 3.2-0.1 5.5 3.8 8.8 4.2 1.3 0.1 1.8-2.2 3.1-2.8 0.9-0.4 2 0.5 2.9 0.1 1-0.4 1.3-1.7 2.3-2.2 2-0.8 4.2-0.8 6.2-1.6 1-0.3 1.4-1.6 2.4-1.7 1-0.1 1.8 1.4 2.9 1.2 1.2-0.2 1.8-1.7 3-2.2 1-0.5 2.7 0.5 3.4-0.4 0.7-0.9-0.8-2.4-0.2-3.4 1.3-2.4 2.9-5.2 5.5-6 2-0.6 3.8 2.9 5.8 2.4 1.4-0.4 0.6-3 1.5-4.2 1.5-2 3.1-4.3 5.4-5.2 1.7-0.6 3.8 0.1 5.3 1.1 1.2 0.7 0.8 2.8 1.9 3.6 1.2 0.9 3.4 2 4.4 0.9 1.2-1.2-0.5-3.4-0.3-5.1 0-0.8 0.4-1.6 0.9-2.2 0.5-0.5 1.6-0.2 2-0.8 0.8-1.2 0.1-3.3 1.2-4 1.8-1.1 4.1-0.1 6.1-0.6 1.4-0.4 2.4-2 3.9-2.1 2.2-0.1 4.9 0 6.6 1.4 1 0.9 0.1 2.7-0.5 3.8-0.8 1.9-2.5 3.2-3.5 5-0.3 0.5 0.1 1.3-0.2 1.9-0.3 0.9-1.7 1.6-1.3 2.4 0.4 0.8 1.8 0.3 2.7 0.2 0.5-0.1 0.9-0.7 1.4-0.8 1.8-0.6 3.8-1.5 5.7-1.2 1.1 0.2 2.3 1.2 2.4 2.4 0.3 2.3-0.4 4.8-1.5 6.9-0.4 0.8-2-0.1-2.5 0.6-0.4 0.4-0.4 1-0.5 1.6-4.8 1.7-9.8 3.4-14.5 5.4-1.2 0.5-2.1 1.5-3.2 2-5.5 2.8-11.1 5.5-16.7 8-4.2 1.8-8.2 4.5-12.7 4.9-3.4 0.4-6.5-2.2-9.9-2.6-2.6-0.4-5.3 0-7.9 0.4-3.1 0.4-6.3 0.8-9.1 2-4 1.8-7 5.8-11.2 7-2.1 0.7-4.7-0.3-6.4-1.7-2.1-1.6-2.1-5-4.2-6.6-1.6-1.2-3.9-0.5-5.9-0.9-4.4-1-9.4-0.8-13.2-3.3-2.9-1.8-3.8-5.6-5.3-8.7-1.1-2-0.5-5.2-2.5-6.4-2-1.3-4.8 0.5-7.2 0.4-1.7-0.1-4.2 0.4-4.9-1.2-1-2.3 2-5.1 1.1-7.5-0.5-1.6-2.9-2.1-4.5-1.9-2.4 0.2-4.1 2.9-6.5 2.8-2.3-0.1-4.2-2.1-6-3.6-2.8-2.4-5.4-5.1-7.5-8.1-0.8-1.1-1.2-2.5-1.2-3.9-0.1-1.6 1.5-3 1-4.5-0.4-1.3-2.7-1.4-3.3-2.6-0.6-1.2 0.7-2.7 0.2-3.9-0.2-0.6-1.2 0-1.8-0.1-3.1-0.8-6.5-1.1-9.3-2.8-1.2-0.6-1.8-2.3-1.7-3.7 0.1-1.7 2.6-3 2.3-4.7-0.3-1.6-2.3-2.4-3.6-3.3-1.1-0.7-2.5-0.8-3.6-1.3-0.1-0.1-0.1-0.3 0-0.4 0.2-1.1 0.2-2.3 0.7-3.3 0.7-1.3 2.1-2.1 2.8-3.4 0.6-1.3 1.1-2.7 1.2-4.1 0-0.7-0.2-1.8-0.9-2-2.2-0.7-4.7-0.1-7-0.7-1-0.2-2.1-0.8-2.8-1.7-0.9-1-1.7-2.4-1.7-3.8 0-5.3 1.7-10.7 1.7-16.1 0-2.4-0.7-4.8-1.5-7.2-1-2.8-3.2-5.2-3.8-8.1-0.5-2.3 0-4.7 0.6-7 0.6-2.4 2.1-4.5 3-6.8 0.9-2.2 2-4.3 2.5-6.7 0.4-2.4 0.2-4.9 0.1-7.3 0-3.9-0.8-7.8-0.3-11.6 0.4-3.8 1.4-7.6 3.2-11 1.7-3.2 4.6-5.6 6.8-8.5 1-1.3 1.9-2.6 2.7-4 1-2.1 1.8-4.4 2.6-6.6q0.5-1.5 0.9-3c1.9-1.6 3.8-3.1 5.7-4.7 4.1-3.5 8-7.1 12.5-10 1.1-0.7 2.9-1.5 3.9-0.6 0.8 0.7-0.6 2.2-1.2 3.1-2.2 3.2-4.4 6.3-7 9.1-2.1 2.1-5.2 3.2-7 5.6-1.1 1.6-0.5 4-1.4 5.8-1.2 2.5-3.3 4.4-4.6 6.8-0.4 0.6-0.7 1.6-0.3 2.1 0.5 0.8 1.8 1.6 2.6 1.2 5.1-2.1 10.1-4.7 14.3-8.3 4.2-3.5 6.5-9 10.7-12.6 1.8-1.7 4.9-1.4 6.8-3 4.7-4 8.2-9.3 12.8-13.5 1.4-1.4 3.2-2.3 5-3.1 0.7-0.2 1.8-0.4 2.2 0.2 0.4 0.9-0.2 2.1-0.7 3-2.7 5-6.2 9.5-8.7 14.6-0.3 0.5 0.4 1.4 0.9 1.4 1.6 0 3.1-1.2 4.7-1.3 0.3 0 0.3 0.7 0.2 1-0.9 2-2 3.9-3.3 5.7-3 4.1-6.8 7.7-9.8 11.9-3.5 4.8-6.1 10.1-9.7 14.8-1.4 1.8-3.1 3.5-5.1 4.5-0.6 0.4-1.5-1.5-2-0.9-1.2 1.5-1 3.8-1.8 5.6-0.4 0.9-1.6 1.3-1.8 2.2-0.1 0.6 0.7 1.5 1.2 1.3 3.1-1.4 5.5-4.1 8.6-5.5 1.3-0.6 3.2 0.4 4.2-0.6 2.4-2 3.2-5.3 5.2-7.7z"/>
	<path id="&lt;Compound Path&gt;" class="s29" d="m191 158.7c-1.6 0-2.4-2.9-4-2.6-2.4 0.5-3.6 3.6-5.9 4.5-1.5 0.7-6.6 3.7-4.9-0.1 6.4-14.1-14.3 13.9-14.4 14-12.2 10.8-1.7-17.9-7-11.5-3.1 3.7-4.9 10.9-8.3 15.3-0.5 0.5-1.6-0.4-2 0.1-4.3 4.2-16.9 22.8-12.3 5.8 0.2-0.6 0-1.6-0.5-2-0.5-0.3-1.3 0.1-1.8 0.4-1.6 1.1-2.6 2.9-4.2 3.9-0.8 0.5-1.9 0.7-2.9 1q0.6-0.3 1.1-0.7c2.8-2.4 4.4-6.1 6.8-8.9 0.9-1 2.3-1.5 3.1-2.6 0.7-1 0.7-2.3 1.1-3.4 0.9-2.7 1.4-5.6 2.8-8.1 0.5-0.8 1.9-0.8 2.5-1.5 0.6-0.8 0.3-2.1 0.9-2.9 1.4-1.8 3.9-2.8 5-4.9 0.4-0.6-1.2-0.8-1.3-1.5-0.1-0.8 0.1-2 0.8-2.5 6.2-4.2 12.8-8.1 19.7-11.4 1.1-0.6 2.5-0.4 3.7 0.1 0.5 0.2 0.8 1.2 0.4 1.7-2 2.4-5 3.9-7.1 6.3-0.3 0.4 0.5 1.1 0.4 1.6-0.1 0.9-1 1.7-0.8 2.6 0.2 0.5 1.3 0.3 1.7 0 0.9-0.8 0.8-2.6 1.9-3.1 2.7-1.5 6.3-1.3 9-2.9 1.1-0.6 0.8-2.3 1.6-3.2 1.1-1.5 2.5-2.9 4.1-3.8 0.7-0.3 1.7 0 2.3 0.5 0.7 0.5 1.1 1.3 1.3 2.1 0.2 0.7-0.5 1.4-0.4 2.1 0.1 0.3 0.6 0.5 0.9 0.4 1.4-0.3 2.8-0.7 3.9-1.6 2.1-1.7 3.4-4.3 5.6-5.9 3.1-2.2 6.7-3.8 10.2-5.4 0.8-0.3 2-0.9 2.7-0.3 0.9 0.6 1.1 2.1 0.7 3.1-0.9 2.6-3.6 4.5-4.3 7.2-0.3 0.8 1.4 1 1.8 1.8 0.3 0.7-0.6 1.7 0 2.2 1.1 0.8 2.7 1.3 4.1 1 4.4-0.7 8.6-2.3 12.7-4 3.6-1.4 6.9-3.2 10.2-5.1 3.9-2.2 7.2-5.4 11.2-7.1 2.3-1 5.1-0.1 7.5-0.8 0.6-0.2 0.6-1.2 0.8-1.8 0.1-0.9-0.3-2 0.1-2.8 1.1-1.7 2.4-3.6 4.2-4.4 2.3-1.1 5.6-2.3 7.6-0.8 1.6 1.2 0.2 4.2-0.4 6.2-0.6 2.1-1.7 4.2-3.3 5.7-1.1 1.2-3.1 0.9-4.4 1.9-0.4 0.4-0.4 1.3-0.1 1.7 0.6 0.8 1.5 1.6 2.4 1.6 5.4-0.4 10.8-1.4 16-2.7 4.6-1.1 9.3-2.4 13.6-4.4 2-1 3.1-3.2 5.1-4.3 2.7-1.5 6.1-1.8 8.8-3.5 1.3-0.9 1.6-2.8 2.7-3.9 1.9-1.6 3.9-3.6 6.3-4.1 3-0.6 6 0.9 9.1 0.9 1.9 0 3.7-1 5.6-0.8 1.1 0.1 2.6 0.6 3.1 1.6 0.9 1.8 1.3 4.1 0.7 6-1 2.8-4.4 4.3-5.1 7.2-0.3 1.7 2.3 3 2.5 4.7 0.2 2.3-1.7 4.6-1.3 6.9 0.6 3.5 3 6.4 4.1 9.8 0.4 1.5 1.8 4.3 0.3 4.7-2 0.7-4.1-1.6-5.7-3.1-1.7-1.6-1.9-4.5-3.7-6-3.3-2.8-8-3.6-11-6.6-1.4-1.4-0.3-3.9-1.2-5.7-0.4-0.8-1.5-1.4-2.3-1.2-1.5 0.3-2.4 2.1-3.9 2.4-1.6 0.2-3.2-1.4-4.8-1.1-4.5 1-8.6 3.4-12.8 5.1-1.7 0.6-9 2.8-9.9 3.3-0.4 0.2-1 0.9-0.7 1.3 0.4 0.6 1.4 1 2.1 0.8 1.2-0.2 3.3-2.3 5.8-1.9 0.9 0.2 2.4 0.6 2.5 1 0.5 1.8 0.7 3.8 0.1 5.5-0.6 1.3-2.4 1.6-3.3 2.6-1.1 1.2-1.1 3.4-2.5 3.9-3.2 1.2-3.7-3.4-3.8-3.5-2.2-0.9-4.6-1.4-6.9-1-4.7 0.7-9.3 2.5-13.7 4.3-1.3 0.6-2.5 1.7-3.4 3-1.4 2-2.6 4.3-3.2 6.7-0.5 1.8-0.6 3.8-0.1 5.6 0.2 0.9 1.2 2.3 2 1.8 3.3-1.9 5.1-5.9 8.4-7.9 1.1-0.7 2.7 0.6 4 0.2 1.6-0.5 2.5-2.5 4.1-2.7 2.6-0.3 5.2 0.3 7.5 1.3 0.9 0.4 1.9 1.8 1.4 2.6-2 2.5-5.6 3.1-7.6 5.5-1 1.2-0.2 3.3-1.2 4.5-1.3 1.7-3.2 3-5.3 3.4-2 0.5-4-1.4-6-1.1-1.9 0.3-3.2 2.1-5 2.9-0.9 0.3-2.1-0.2-2.9 0.3-2.1 1.4-4 3.3-5.7 5.2-3.2 4-5.4 8.9-9 12.5-3.4 3.5-7.4 6.5-11.7 8.8-0.8 0.4-2.5-0.7-2.3-1.6 1-4.5 4.7-8.1 5.5-12.6 0.2-1.1-2.6-0.4-3.2 0.5-3 4.2-3.8 9.8-7 13.8q-0.5 0.6-1 1c0.6-1 1.2-1.9 1.7-2.9 1.7-3.7 2.3-7.8 4.4-11.3 1.3-2.3 3.5-3.9 5.7-5.5 2.4-1.8 5.4-2.8 7.9-4.5 4-2.8 3-2.7 1.7-5.9-0.5-1.4-1.7-2.7-1.7-4.2 0-1.4 0.8-2.8 1.7-4 4-5.1 8.4-9.9 12.7-14.7 10.1-11.4 6.6-17.4-4.5-11-5.3 3-9.3 8-14.8 10.6-7.8 3.7-8.9-4-10.2-4.4-7.5-2-10.8 5.1-14.8 6.9-3.3 1.3-6.9 2-10.4 1.8zm-142.4 30.4c-1.5 2.7-2.7 1.3-2.4-0.4 0.1-1.2 1-3.5-0.2-3.6-2.1-0.3-6.6 4.8-10.4 10.4q-1 1.5-1.9 3.1c1-3 2.2-6.1 3.7-9.1 1.4-3 3.1-5.9 5.2-8.9 1.8-2.6 4.8-3.9 6.9-6.2 2.1-2.3 3.1-5.7 5.7-7.6 2.1-1.5 5.6-0.4 7.6-2.1 2-1.7 1.7-5.1 3.4-7.2 3-3.6 6.8-6.4 10.4-9.4 4.1-3.5 8-7.1 12.5-10 1.1-0.7 2.9-1.5 3.9-0.6 0.8 0.7-0.6 2.2-1.2 3.1-2.2 3.2-4.4 6.3-7 9.1-2.1 2.1-5.2 3.2-7 5.6-1.1 1.6-0.5 4-1.4 5.8-1.2 2.5-3.3 4.4-4.6 6.8-0.4 0.6-0.7 1.6-0.3 2.1 0.5 0.8 1.8 1.6 2.6 1.2 5.1-2.1 10.1-4.7 14.3-8.3 4.2-3.5 6.5-9 10.7-12.6 1.8-1.7 4.9-1.4 6.8-3 4.7-4 8.2-9.3 12.8-13.5 1.4-1.4 3.2-2.3 5-3.1 0.7-0.2 1.8-0.4 2.2 0.2q0.1 0.4 0.1 0.9c-4.8 3.9-7.1 7.6-10.2 13.3-0.7 1.3-1.5 2.5-1.8 3.9-0.9 3.4 1.4 3.4-3.4 7.5-0.7 0.5-1.6 0.9-2.5 0.7-1-0.1-4.2-3.1-5.9-0.5-2.3 3.5-3 10.5-6.8 10-1.1-0.2-2.2-1.1-3.4-0.9-4.5 0.8-4.3 7.1-6.4 10.9-1.5 2.6-3.1 4.8-5.1 7-1 1-2.1 1.4-2.9 1.3-2.1-0.2 0-3.8 0-6.9 0-1.5-1.5-2-3.4 0.2-2.9 3.2-4.6 7.5-8 10.4-1.9 1.7-6.3 0.2-4.1-3.4 1.7-2.8 4.7-4.6 6.4-7.4 0.5-0.8 0.5-2.2-0.2-2.9-3-2.6-6.3 0.6-7.2 0.4-0.9-0.1-1-2.3-1.9-2.1-1.8 0.5-3.1 2.3-4.1 3.8-2.6 3.8-4.2 8-6.5 12z"/>
	<path id="&lt;Compound Path&gt;" fill-rule="evenodd" class="s30" d="m73.2 273.3c-0.2 2.3 1.4 5 3.6 5.9 2.6 1.1 5.7-0.3 8.5-0.7 1.2-0.3 2.7-2.3 3.6-1.4 1 1.2 0 3.3-0.6 4.8-1.5 3.8-4.8 6.9-5.7 11-0.4 1.8 1.9 3.4 2.1 5.3 0.2 1.9-1.7 3.9-0.9 5.6 0.8 1.9 3 3.7 5.1 3.6 1.9 0 2.3-3.6 4.1-3.9 3-0.6 6 2.5 8.9 1.7 2.6-0.7 3.5-4.1 5.5-5.7 1.4-1 3.1-2.8 4.6-2.1 2.5 1.1 3.6 4 5.1 6.2 1.1 1.7 0.9 4.2 2.5 5.4 1.9 1.3 4.5 1.6 6.8 1.1 2.9-0.7 5.5-2.7 7.7-4.7 2.8-2.6 4.3-6.3 7.1-8.8 1.5-1.4 4.4-1 5.6-2.6 1.7-2.2 1.3-5.4 2.5-8 0.6-1.4 1.3-3.3 2.8-3.6 2.5-0.4 5 2.6 7.4 1.7 1.9-0.6 1.2-4.2 2.9-5.3 3.4-2 7.9-1.3 11.3-3.2 5.1-2.8 9.4-6.9 13.7-10.8 2-1.9 3.2-4.6 5.3-6.4 2.3-2 5.2-3 7.8-4.6 4.4-2.7 9.1-4.9 13.2-8.1 3.2-2.5 5.2-6.3 8.3-8.7 1.1-0.9 3.3-2 4-0.8q0.2 0.4 0.3 0.8c-0.9-1.8-3.1 0.7-4.5 2.7-1.2 1.7-1.9 3.8-3.3 5.3-1.5 1.7-3.3 3.3-5.2 4.4-3 1.7-6.4 2.6-9.5 4.1-2.2 1-8.3 3.9-9.9 5.7-1.4 1.4-2.3 3-3.3 4.7-2.1 3.3-14.6 20-18.3 18.9-0.6-0.1-0.8-0.7-0.8-1.3 0.1-1-0.1-2.2-2.1-1.2-2.4 1.2-4.5 4-5.2 6.1-1 3.3-2.5 8.8-3.9 11.9-1.4 3.2-3.5 2.8-3.9-0.5-0.1-1.4 0.1-3.4 0.4-5 0.6-4.9-0.7-5.5-2.4 0.2-0.9 3.2-1.9 7.5-2.6 8.7-1 1.9-2.4 1.6-3.1 0.6-2.7-3.6-5.9 0.3-7.9 6.1-1 3.1-2 6.7-2.8 8.7-1.4 3.4-5.5 1.1-2.6-2.1 2.4-2.4 2.4-6.3-4.3-2-2.2 1.3-4 3.2-6.4 4.1-7.1 3-8-3.7-12.5 0.8-3.2 3.2-5.8 7.2-9.4 9.8-8.4 6.1 0.1-11-11.6-1-6 5.1-15.7 13.2-18.5 9.6-3.9-5.1 6.2-15.2 7.3-20.3 0.5-2.1-2.6-3.6-3-5.7-0.3-1.5 1.6-3 1.1-4.5-0.6-2.1-3.2-3-4.1-5-0.8-1.7 1-5.1-0.8-5.6-4.2-1.4-9.3 3-13.3 1.1-8.2-4 0.6-14.5 0.8-15.5 0.3-1.9-7.1-0.4-6-4.2 1.3-4.5 12.4-8.9 14.9-12.3 0.9-1.2 1.8-3 1.1-4.4-0.9-2-3-1.4-5.2-1.2-5.1 0.6-5.5-3.4-0.4-7.9 11.2-9.9 20.8-2 32.5-11.2 0.8-0.7 0.1-2.2 0.8-2.9 0.7-0.7 2-0.7 2.9-1 3.2-1.2 0.6-5.8 1.4-7.9 1.5-4.5 6.2-1.2 8.2-2 3.6-1.5 2.9-5.6 3.3-6.4 0.3-0.6 1.5-0.6 1.7-1.3 0.3-1.1-1.6-4.6-0.6-6.3 1.5-2.3 4.7-0.1 5.4-0.2 2.6-0.2 2-4.1 3.4-5.2 0.9-0.8 2.1-1 3.3-1.3q-0.7 0.3-1.2 0.8c-2.3 2.1-2.3 5.8-4.2 8.3-0.6 0.9-2.5 0.4-3 1.4-1.4 2.5-2 5.6-2.5 8.5-0.4 2.4 1.5 5.5-0.2 7.4-2.1 2.4-6.3 1.6-9.1 3.2-2.1 1.3-4.1 3.1-5.4 5.3-0.9 1.4 0.2 3.4-0.6 4.7-0.8 1.4-3.7 1.1-4 2.7-0.4 2.8 2 5.5 2.3 8.3 0.1 1.3 0 3.1-1.2 3.6-2.4 1-5.4-0.7-7.9 0.2-2 0.8-2.4 3.9-4.4 4.6-1.6 0.5-3.2-1.6-4.9-1.6-1.1 0.1-2.4 0.7-2.8 1.7-0.9 1.9 0.2 4.3-0.8 6.1-0.9 1.5-4.2 1.3-4.3 3zm9.9-32.9c-2.3 0-5.1 0.3-6.8 0.6-3.7 0.6-7.2 2.3-11 2.6-0.5 0-1.3-0.2-0.6-1.8 0.6-1.2 1.8-2.1 2.8-2.9 2.6-1.9 6.3-2.7 7.5-3.6 0.6-0.4 0.9-1.6 1.6-1.9 1.8-1 4.7-0.6 6.4 0.7 3.3 2.6 3.9 6.2 0.1 6.3z"/>
	<path id="&lt;Path&gt;" class="s31" d="m205.1 311.5c1.7-0.6 3.8 0.1 5.3 1.1 1.2 0.7 0.8 2.8 1.9 3.6 1.2 0.9 3.4 2 4.4 0.9 1.2-1.2-0.5-3.4-0.3-5.1 0-0.8 0.4-1.6 0.9-2.2 0.5-0.5 1.6-0.2 2-0.8 0.8-1.2 0.1-3.3 1.2-4 1.8-1.1 4.1-0.1 6.1-0.6 1.4-0.4 2.4-2 3.9-2.1 2.1-0.1 4.7 0 6.4 1.3-1.9-0.3-3.8-0.4-5.3 1.1-1.2 1.2-0.8 2.5-2.9 3.5-1.6 0.8-1.2-1.4-2.4-1-1.5 0.5-2 3.7-3.1 4.9-0.3 0.3-0.9 0.2-1.4 0-0.7-0.2-1.8-0.6-1.6 0.8 0.2 1.3 2.1 3.3 1.5 4.6-0.6 1.8-3.8 2.7-5.5 2.8-3 0.2-2.7 1.1-5.2 4.4-0.4 0.6-0.8 1.2-1.4 1.6-0.6 0.3-1-0.1-0.9-0.6 0.1-0.8 0.5-1.5 0.3-2.3-0.1-0.5-0.4-0.8-0.9-0.8-1.8-0.2-2.4 1.2-2.7 2.6-0.4 1.8-0.4 3.7-1.1 5.3-0.3 0.7-1 1.1-1.6 1.1-2.1 0.2-1.5-1.5-1.1-2.7 0.3-1.1 0.6-2.2 0.6-3.3 0-1.8-2.6-2.1-3.6 0.3-1.3 3.3 0.2 8.3-2.6 10.5-5.1 3.9-7.3-2.5-9-2.7-1.7-0.3-3.3 1.1-5 1.1-0.9 0-1.3-0.4-2.2-0.2-0.8 0.2-0.9 0.9-1.7 1.1-1.2 0.3-2.6-1.4-4.5-0.3-2.1 1.3-2.1 4.2-3.2 4.5-1.1 0.3-1.9-1.6-3-1.8-4.3-0.9-6.2 3.9-7.6 4.4-0.7 0.2-1.6-0.6-2.2-0.2-2.1 1.2-2.3 4.9-7.2 3.9-4.6-0.8-4-3.1-5.6-5.4-1.5-2.4-2.8 0.4-4.2 0-0.9-0.1-0.9-1.6-1.6-2-1.9-1-4 1.2-5.4 1.3-4.4 0.1 0.3-9.6 1.9-11.4q0.4-0.5 0.9-1c-1.7 2.3-2.5 4.6-2.4 6.2 0.1 1.9 3.4 2.9 5.5 2.3 1.5-0.3 3-1.6 4.5-1.3 1.3 0.3 1.5 3.1 2.8 2.8 2.3-0.4 3-4.4 5.3-4.4 3.2-0.1 5.5 3.8 8.8 4.2 1.3 0.1 1.8-2.2 3.1-2.8 0.9-0.4 2 0.5 2.9 0.1 1-0.4 1.3-1.7 2.3-2.2 2-0.8 4.2-0.8 6.2-1.6 1-0.3 1.4-1.6 2.4-1.7 1-0.1 1.8 1.4 2.9 1.2 1.2-0.2 1.8-1.7 3-2.2 1-0.5 2.7 0.5 3.4-0.4 0.7-0.9-0.8-2.4-0.2-3.4 1.3-2.4 2.9-5.2 5.5-6 2-0.6 3.8 2.9 5.8 2.4 1.4-0.4 0.6-3 1.5-4.2 1.5-2 3.1-4.3 5.4-5.2z"/>
	<path id="&lt;Compound Path&gt;" class="s32" d="m413.6 86c2.1 1.5 2.9 4.4 4.9 6.1 2.2 1.7 13 7 15.7 7.7 0.6 0.2 1.9 3.8 3.3 5.4 1.5 1.8 3.5 3.1 5.1 4.9 1.8 2.1 3.1 4.8 5.1 6.8 2.3 2.3 7.1 5.6 7.6 6.1 0.4 0.4 13.9 25.1 14.4 26.1 4 8.1 7.1 20.3 9.8 29.1-1.3-2.5-2.6-5.1-4-7.6-1.4-2.6-2.9-5.1-4.5-7.6-1.2-1.8-2.9-3.4-4-5.3-0.8-1.3-0.6-3.1-1.5-4.4-1-1.6-2.9-2.4-4-3.9-1.3-1.8-1.8-4-2.9-5.9-0.5-0.8-1.8-2.8-2-1.9-0.4 1.6 0.5 3.3 1.2 4.8 0.6 1.3 1.8 2.1 2.5 3.3 1.1 1.8 1.9 3.8 2.8 5.7 1.7 3.2 3.8 6.4 5.1 9.8 1.9 4.6 2.8 9.4 4.6 14 0.6 1.7 2.1 2.9 2.6 4.6 0.6 2 0.9 4.1 0.6 6.2-0.1 0.8-0.9 1.6-1.7 1.5-0.8 0-1.6-0.8-1.9-1.6-0.5-1.4 0.1-3.1-0.5-4.4-0.8-2-2.8-3.4-3.8-5.3-0.3-0.8 0.3-1.7 0.2-2.5-0.1-1.4-0.3-2.8-1-4.1-0.9-1.7-2.6-2.9-3.6-4.6-0.3-0.5 0-1.3-0.3-1.8-0.9-1.4-2.7-2.2-3.3-3.8-0.5-1.3 0.4-2.9 0.1-4.4-1-4.5-2.4-3.5-4-5.2-1.2-1.3-1.9-3-3.2-4.3-1.1-1-2.9-1.3-3.8-2.5-0.7-1-0.1-2.5-0.7-3.4-0.3-0.5-1.3-0.9-1.7-0.5-0.8 0.8-0.4 2.2-1 3.2-0.3 0.5-0.6 0.9-0.7 1.4-0.3 1-0.2 1.3-0.6 2.3-0.3 0.7-1.2 0.9-1.5 1.6-0.3 0.8-0.2 1.7 0.1 2.5 0.7 1.4 2.2 2.3 2.8 3.8 0.3 0.7 0.1 2.2 0.4 2.9 0.8 2 2.4 2.6 2.8 4.6 0.3 1.5-2.5 4.1-3.6 1.8-0.7-1.4-0.3-3.2-0.9-4.6-0.6-1.2-2-1.8-2.7-2.9-0.5-0.9-0.3-2.2-0.8-3.1-0.8-1.2-2.4-1.8-2.9-3.1-0.7-1.9-0.1-4.1-0.6-6.2-0.2-0.8-1.2-1.4-1.5-2.2-0.6-2-0.6-4.2-1.3-6.2-0.3-0.9-0.7-1.8-1.5-2.3-0.4-0.3-0.9 0.3-1 0.7-0.1 0.9 0.5 1.7 0.6 2.6 0.2 1.6-0.2 3.2 0.1 4.8 0.3 1.4 1.5 2.6 1.8 4 0.2 0.7-0.5 1.6-0.3 2.3 0.5 1.6 2 2.8 2.4 4.4 0.3 1.2-0.4 2.3-0.6 3.5-0.5 3.1-0.2 6.4-1.5 9.2-1.1 2.4-4.7-1.2-5.4-1.8-3.5-2.9-3.6-1.9-3.8-7.3-0.1-2.3 0.3-4.5 0.5-6.8 0.1-2.1 0.6-4.2 0.4-6.3-0.2-1.3-0.6-2.6-1.4-3.7-0.1-0.2-0.7 0.2-0.7 0.5-0.3 1.2 0.1 2.4-0.1 3.6-0.2 1.3-1 2.5-1.1 3.8-0.1 1.8 0.5 3.5 0.4 5.3 0 1.3-0.4 2.6-0.5 4-0.3 1.9-1.1 3.8-0.6 5.7 0.6 2.3 2.8 4 3.7 6.3 0.5 1.5 0.6 3.2 0.4 4.8-0.8 4.2-4.3 4.5-2.6 8.9 0.8 2.1 2.7 3.6 3.2 5.7 0.5 1.9 0.3 3.9-0.2 5.8-0.2 1.2-1.5 2-1.9 3.1-0.7 2.5-0.3 5.2-1.4 7.5-0.4 0.8-1.7 0.9-2.5 0.7-0.8-0.3-1.1-1.2-1.3-1.9-0.2-1.2 0.3-2.4 0.2-3.5 0-0.5-0.3-1-0.6-1.4-0.6-0.7-1.8-1.2-2-2.1-0.4-1.6 0.8-3.2 0.5-4.8-0.1-0.9-0.9-1.9-1.9-2-0.7 0-1.1 1.2-1.3 1.9-0.5 1.6-0.1 3.3-0.7 4.8-0.4 0.8-1.3 1.5-2.1 1.9-0.8 0.4-2.1-0.3-2.7 0.3-1 1.3-1.4 3-1.7 4.6-0.5 3-0.9 6.1-0.5 9.1 0.2 2.6 2.1 4.8 2.4 7.4 0.2 1.3-0.3 2.6-0.9 3.8-0.9 1.6-2.1 3.1-3.4 4.3-0.7 0.6-2.2 0.1-2.5 1-0.9 2.4 0.2 7.3-1.7 10.2-1.4 2.1-6.2 4.4-9.3 4.5-0.5 0.1-1.4 0.2-1.5-0.3-0.3-1.1 0.1-2.3 0.6-3.3 2-4 5.8-7.3 7.9-12.1 1.2-2.6 2.6-5.3 2.7-8.1 0-3.2-1.5-5.5-1.5-8.6-0.1-1.3 0.9-2.6 1.3-3.7 0.4-1.4 0-3 0.4-4.4 0.4-1.8 1.3-3.5 2-5.3 0.8-1.8 2.1-3.5 2.3-5.5 0.3-2.2-0.5-4.4-0.7-6.6-0.1-1-0.3-1.9-0.2-2.9 0.1-1.9 1-3.7 0.9-5.6-0.1-2.1-1-3.8-0.9-5.9 0.1-1.6 0.8-2.9 0.9-4.5 0.1-3.3-0.4-5.9-0.3-9.2 0.1-1.9 1.2-3.8 1.5-5.7 0.2-1.7-0.7-3.4-0.7-5.1-0.1-3.9 0.2-7.8 0.5-11.7 0.1-1.6 0.5-3.2 0.4-4.7-0.1-2.1-1.1-4-1.2-6-0.1-1.1 0.8-2.2 0.6-3.2-0.2-1.1-1.8-1.7-1.8-2.8-0.1-1.6 0.4-3.5 1.6-4.6 0.8-0.8 2.2-0.6 3.3-0.3 1.4 0.4 2.7 1.2 3.8 2.2 1.5 1.4 2 3.7 3.6 5 0.6 0.5 1.7 0.1 2.4-0.4 0.5-0.4 0.6-1.3 0.3-2-0.7-1.6-2.1-2.8-3.1-4.3-2.4-3.8-4.9-7.5-6.9-11.6-0.3-0.5 0.6-1 0.5-1.6-0.3-0.8-1.2-1.3-1.5-2.2-0.4-0.9-1.1-2.1-0.4-2.9 0.5-0.6 1.7-0.1 2.4 0.4 1.9 1.1 3.1 3.1 5 4 0.4 0.3 1.1-0.4 1-0.9-0.4-1.3-1.2-2.5-2.3-3.3-2-1.6-4.6-2.3-6.8-3.7-0.8-0.5-1.5-1.3-2-2.1-0.8-1.5-0.8-3.4-2-4.7-2.2-2.6-5.1-4.3-7.6-6.5-3.3-2.8-6.6-5.6-9.6-8.8-0.5-0.5-0.8-1.3-0.7-2 0.2-0.6 0.8-1.2 1.4-1.1 1.8 0.2 3.6 0.7 5.1 1.8 2.6 2 4.5 4.9 7 7.1 2.5 2.3 5 4.6 8 6.3 1.9 1 4.4 0.2 6.2 1.4zm-23.4 171c-2.2 1.8-0.5 3.1 0.4 4.9 1.4 3.1-2.6 6-4.8 5.9-2.7-0.2-3.1 18-8.4 18-2 0-1.1-2.7-0.6-3.9 2.2-5.1 2.1-5.8 2.7-11.2 0.3-2.4 1.6-6.3 3.6-8 2.1-1.9 1.9-12.2 6.8-8.5 0.2 0.1 1.3 2 0.3 2.8z"/>
	<path id="&lt;Compound Path&gt;" fill-rule="evenodd" class="s33" d="m392.8 364.7c-2.4-0.3-2.1-2.2-2.1-4.2 0-1.9 9.5-11.1 10.9-14.5 0.6-1.3 3.8-6.4 5.8-4.9 0.6 0.5 1.3 2.9 3.5-0.6 1.3-2 0.1-5.7 5.6-11.2 1.2-1.2 4.8-1.4 3.8 3.5-0.9 4.4 5.4-0.1 5.8 7.8 0 0.7-1.1 1.1-1.2 1.7-0.1 1.9-5.6-0.3-5.6 3.3 0 2.9 4 4 0.1 7-1.9 1.6 6.3 5 6.8 8 0 0.1 0.5 1.3 0.5 1.4 0.2 0.8-0.1 1.7 0.4 2.2 0.3 0.4 1.3 6.3 4.4-0.5 0.8-1.6 4-4.6 5.4-2.4 0.7 1.2 2 0.3 1.8 4.6-0.1 2.3 4.4 6.1 2 8.6-1.1 1.3-4.5 4-4.8 4.7-0.5 0.9-0.9 4.9-3.6 4.3-0.1-0.1-1.2-2.9-2-0.3-0.1 0.2 0 0.4-0.1 0.5-0.2 1.1-0.6 2.1-0.6 3.2-0.2 3-2.2 7.4-5.6 7.4-3.1 0-2.6 1.8-4.5 5.1-1.3 2.1-5 11.7-8.6 10.8-0.8-0.2 1.1-3.2-1.1-3.2-1.9 0-3.2 2.6-4.1 4.1-1 1.8 4.5-0.9 2.9 3.5-0.2 0.7-1.4 2.6-1.9 3.1-0.7 0.7-1.4 1.3-2.1 1.8-2 1.3-8.5 3.4-9.6 4.7-0.6 0.8-0.8-0.6-2.1 2.7-0.8 2-10.9 0.8-8.3 3.6 1 1.2 4.9-1.7 4.6 1.8-0.2 2.5-10.8-2.3-9.6 3 0.8 3.4-5 0.3-7.1 4.7-0.5 1-4.1 3-6.3 2.5-0.9-0.3-7.7 3.3-8.7 4.5-2.6 3.2-4.8 0.1-1.3-2.7 5.3-4.4 0.4-2.8 4.1-6.1 0.4-0.3 10.8-6.8 5-6.3-0.5 0.1-4.5 1.8-5 2.2-0.6 0.4-4.3 1.4-4.3 0.3 0-4.3 3.2-1 3.2-5.6 0-1.6 10.1-6.4 2.1-5-2.7 0.5-1.9-1.1-4.9 2.5-0.5 0.6-5.3 1.6-7.1 2.8-0.7 0.4-1.5 0.9-2.5 1.5-2.1 1.3-4.2 2.7-6.4 3.5-3.3 1.3-9 6.5-13.8 7.4-1.7 0.3-4.3 2.4-7.9 2.8-7.4 1-3.2-2.4-7.2-2.1-1.5 0.1 1.6 1.6-1.2 3.5-2.6 1.8-6.7 2.6-9.8 3.3-2.9 0.7-9.8 1.5-12.7 0.9-1.2-0.3-4.5 0.1-5.3 0.9-5.5 5.2-8 6.7-16 4.3-2.2-0.6-13.1 1.6-9.5-3.6 1.2-1.8 21.1-2.4 24.9-4.8 2.1-1.3 9.7 1.1 9.7-3.9 0-6.6-0.7-3.7 4.4-7.1 5.2-3.4 1.2-5.1 5.9-6.6 5.4-1.7 4-0.7 8.5-4.8 2.3-2.1 3.2-3.3 5.8-5.4 2.7-2.2 4-0.6 7.8-1.5 0.6-0.2 1.1-0.7 1.6-1.1 2.2-1.6 5.1-7.7 3.5-10.1-0.9-1.4 2.2-3.2-0.1-5.3-2.8-2.6 4-8.2 5.1-9.8 2.5-3.5 8.7-7.9 7.4-12-0.4-1.3-5.2 5.5-5.8 3.8-1.1-2.9-7.8 0.7-1.6-10.9 3.5-6.5 3.2-2.3 5.7-3.9 0.3-0.2 0.2-1.8 1.1-2.4 1.3-0.7 1.8-2.2 2.6-3.5 0.3-0.5 2.6-6.2 3.2-6.2 1.6-0.1 1.9 3.4 0.6 5.2-1.9 2.5-4.5 8.5-3.5 11.5 0.4 1.6-1.1 3.1 0.7 4.1 0.3 0.2 1.8 2.9 3.2 0.6 0.8-1.3-1-4 3.7-4 2.2 0 3.8-5 7-7 4.2-2.6 1 5.5 3.5 2.1 0.2-0.3 2.8-2.1 3.3 0.3 0.2 0.9 1 1 0.9 3.3 0 1.3 3.4-0.4 4.4-2.2 0.8-1.5 7.5-7.9 7.5-2 0 2.5-2 3.2 0.2 6.3 0.2 0.2-1 2.7 2.5 0.9 0 0 4.3-5.1 4.5-0.8 0 0.5-0.9 2.3 1.9 0.8 2.8-1.5 1.1-4.2 4.8-6.9 2.3-1.7 2.1-1.7 3.9-3.6 4.6-4.8-0.8-3.6-1.9-0.1-0.2 0.5-0.4 0.2-1.1 0.2zm-35.7 12.4c-1.7-2.1-3.4 2.4-3.4 4.5 0 2.8 0.4 5-1.3 7.3-2.6 3.5 3.2 10.7-1.6 12.4-1.4 0.5-2.1 5.8-4.3 7.5-0.8 0.7-4.5 5.5-6.1 6.6-1.5 1 1.3 1.6-0.8 3.2-1 0.8-10.9 8.6-4.7 8.3 4-0.2 7.3-3.5 10.9-5.5 1.4-0.8 1.9-2.2 5.3-3.6 1-0.4 4.6-3.2 4.7 0.3 0 1.3 4.2 3.3 4.3-1.7 0.1-2.8 5.4 0.4 6.6-4.2 0.4-1.5 7.5-0.6 5.4-4.8-1.1-2.3 4.8-1.3 0.7-3.6-1.9-1.1-3.6 1.5-5.3-3.2-0.6-1.7-2.7-1.9-3.3 0.8-0.7 3.2 0.2 6.6-4.8 7.4-2.7 0.3-1.6-6-0.1-7.8 1.2-1.4-3.5-5.2-0.9-9.4 1.4-2.1-2.3-3.1-0.5-8.5 1.2-3.4-0.5-5.7-0.8-6zm32.4 15.3c-0.4 4 0.7 7.7 4.9 9.9 2.4 1.3 8.1-0.7 7.7-2.4-0.2-0.6-2.5 0.4-5-0.2-2-0.5-3.1-2.4-2.9-5.3 0.4-5.1 1.8-7.3 2.7-8.4 1.1-1.3 4.2-3.3 3.2-0.7-0.4 1.3-8.2 19.6 11.2 5.2 5.8-4.4 11.6-10.7 8.9-17.8-4-10.4-29 0.5-30.7 19.7zm24.2-20.6c2.6 0.1 5.1 1.2 4.7 4.2-0.7 6-11.3 15.4-15.1 13.8-1.9-0.8 2.2-2.8 2.7-3 2.5-1 6.6-5.1 6.1-7.5-1.2-5.7-9.2 2.6-9.8 2.6-3.7 0.3-0.6-4 2.9-7 2.5-2.1 5.3-3.4 8.5-3.1zm-60.6-33.9c-1.8-2.7-4.7-0.4-4.3-5.6 0.1-3.1 1.2-1.3 0.7-8.1-0.7-8.8 9.4-1.6 12.7-14.5 0.6-2.3 1.9 0.8 3.1-7 0.3-2.4 6.8-7.3 7.7-11.6 0.3-1.5 5.8-4.4 0.1 6.8-0.6 1.3-3.7 8.9-2.6 10.3 0.9 1.1 0.8 5-2 6.4-3.8 1.9-5.5 8.5-7 12.5-2.4 6.5-1.3 10.1-7.2 15.6-0.3 0.3-6.9 13-5.9 3.7 0.3-2.9 6.8-5.6 4.7-8.5z"/>
	<path id="&lt;Compound Path&gt;" fill-rule="evenodd" class="s34" d="m231.2 26.4c2.1-0.6 24.9-5.6 25.4-5.4 5.4 2.6 9 1.5 11.7 0.5 6 2.1 18.5 2.3 21.6 2.9 3 0.6 18.9 4.1 23.7 6.3-2.2-0.3-10.2-2.5-12.9 0.3-2.4 2.5-5.3 1.5-5.6 1.6-3.3 1.3-0.6 3.3 2 3.5 2.2 0.2 4.9 0.1 5.7 0.6 9 6.3 19 3.7 20.7 5.5 3.6 3.7 12.5 3.1 12.9 4.6 1.4 5.4-6.5 0.5-7.9 3.3-1.4 2.6-3.8 0.9-7.6 0-9.4-2.3-7.3 3.5-1.5 3.7 4.1 0.2 8.6 5.1 6.2 5-2.6-0.1-1.8 2.7-4.6 2.6-16.2-0.7 3.2 4.5 4.2 6.3 4.6 7.8-8.3 0.5-8.5 0.5-7.1-0.5-1.8 5-1.7 5.1 1.4 1 11.6 3.6 11.9 5 1.4 6.2-9.4-0.5-10.8-0.4-6.9 0.3-2.1 5.5 0.5 6.6 2.8 1.2 8.5 6.8 8.5 6.8 3.2 1.1 2.2-1 2.2-2.2 0-6.4 14.9 1.4 16.3 2.7 8.7 8.5-13.6-2.1-11 3.7 3.9 8.6-7.8 8.3-8.4 4.2-0.7-5.2-7.3-8.9-12.2-8.9-4.3 0-4.7-1.7-5-3.3-0.7-5.5-8.3-3.8-7.8 0.1 0.3 1.6 1.3 3.5 2.3 5 1.4 2.2 1.5 3.5 0.6 5.4-1.4 3-4.5-2.2-6-3.7-4.1-4.1-3.7-7.1-3.4-9.4 0.5-3.9-1-6.1-6.9-5.1-2.1 0.3-3.3-1.5-4-2.1-2.9-2.6-7.1-4.6-8.4 0-0.4 1.8 1.1 14.3-2.3 15-6.9 1.4-2.5-7.9-3.6-9.1-2.5-2.8-0.2-8-1.6-9.4-4-4.1-4.1 7.1-7.5 8-7 2-1.4-4.3-1.4-4.4 0.6-9.3-8.7-1.4-8.8-1.4-5.2 0.2-8.2 10.2-12.4 6.5-3.8-3.3 3.9-4.6 2.5-7.5-1.9-3.9-8.4 2.1-11.9 0.8-1.3-0.5 2.1-8.6-8.7-0.6-6.4 4.8-6.3-1.2-5.5-1.9 2.5-2.1-1.4-1.9-4.5-0.8-6.3 2.2-12.8 9-16.9 12.3-2.7 2.3-5 2.2-4.1-0.1 0.8-2.1 2.6-4.4 1-5.3-3-1.8-11 2.8-13.2 0.4-2.3-2.4-0.9-3.9 1.5-4.8 1.4-0.6 11.5-3.1 13.7-3.5 7.8-1.6 19.5-2.6 19.8-5.8 0.4-5.6-21.9 3.9-25.5 2.9-4.7-1.3-11.4 6.3-15.4 2.8-4.2-3.7 3.3-6.2 3.6-6.6 4.4-6.2 24.7-3.3 29-9 4.8-6.1-5-3.2-7.1-4.7-6.3-4.4 12.8-4.5 13.4-5.1 6.5-5.7-5.1-2.2-6.7-2.2-4.4-0.1-25.6 8.7-25.6 3.7 0-5 12.8-3.7 18.8-6.9 3.4-2 10.2-1.2 14.3-1.2 17.2 0 5.9-3.3 5.4-4-3.3-5.1 4.1-2.5 5.6-3.9 2-1.9 13.9-0.9 16.9-0.4 1.3 0.2 4.7 0.6 4.5-1.2-0.1-0.7-2 0-0.8-1.4 1.2-1.3-3.7-3.3-8.7-2.5zm-66.5 54.2c-7.8-0.3-2.4 6.5-7.8 5.5-6.4-1.1-10.2 3.8-15.1 6.2-3.3 1.6-4.8 1.2-1.5-2.9 2.6-3 6.3-8.5 10.6-8.2 5.7 0.4 5.7-9.9 14.7-5.9 4.9 2.2 3.2 5.5-0.9 5.3zm-29.9 16.3c-2.6 2.4-3.8-0.5-3.8 3.4 0 1.2-4.3 4.5-5.5 5-3.9 1.5-5.7 5.3-6.8 5.8-6.8 2.5 1.3-4.6 1.9-5.6 1-1.5 5.4-3.9 5.6-5 0.7-3.4 3.2-1.1 4.3-3 1.9-3.5 0.1-0.4 3.2-2.6 0.3-0.2 1.9 1.2 1.1 2z"/>
	<path id="&lt;Path&gt;" class="s35" d="m479.5 178.2c-1.3-2.5-2.6-5.1-4-7.6-1.4-2.6-2.9-5.1-4.5-7.6-1.2-1.8-2.9-3.4-4-5.3-0.8-1.3-0.6-3.1-1.5-4.4-1-1.6-2.9-2.4-4-3.9-1.3-1.8-1.8-4-2.9-5.9-0.5-0.8-1.8-2.8-2-1.9-0.4 1.6 0.5 3.3 1.2 4.8 0.6 1.3 1.8 2.1 2.5 3.3 1.1 1.8 1.9 3.8 2.8 5.7 1.7 3.2 3.8 6.4 5.1 9.8 1.9 4.6 2.8 9.4 4.6 14 0.6 1.7 2.1 2.9 2.6 4.6 0.6 2 0.9 4.1 0.6 6.2-0.1 0.8-0.9 1.6-1.7 1.5-0.8 0-1.6-0.8-1.9-1.6-0.5-1.4 0.1-3.1-0.5-4.4-0.8-2-2.8-3.4-3.8-5.3-0.3-0.8 0.3-1.7 0.2-2.5-0.1-1.4-0.3-2.8-1-4.1-0.9-1.7-2.6-2.9-3.6-4.6-0.3-0.5 0-1.3-0.3-1.8-0.9-1.4-2.7-2.2-3.3-3.8-0.5-1.3 0.4-2.9 0.1-4.4-1-4.5-2.4-3.5-4-5.2-1.2-1.3-1.9-3-3.2-4.3-1.1-1-2.9-1.3-3.8-2.5-0.7-1-0.1-2.5-0.7-3.4-0.3-0.5-1.3-0.9-1.7-0.5-0.8 0.8-0.4 2.2-1 3.2-0.3 0.5-0.6 0.9-0.7 1.4-0.3 1-0.2 1.3-0.6 2.3-0.3 0.7-1.2 0.9-1.5 1.6-0.3 0.8-0.2 1.7 0.1 2.5 0.7 1.4 2.2 2.3 2.8 3.8 0.3 0.7 0.1 2.2 0.4 2.9 0.8 2 2.4 2.6 2.8 4.6 0.3 1.5-2.5 4.1-3.6 1.8-0.7-1.4-0.3-3.2-0.9-4.6-0.6-1.2-2-1.8-2.7-2.9-0.5-0.9-0.3-2.2-0.8-3.1-0.8-1.2-2.4-1.8-2.9-3.1-0.7-1.9-0.1-4.1-0.6-6.2-0.2-0.8-1.2-1.4-1.5-2.2-0.6-2-0.6-4.2-1.3-6.2-0.3-0.9-0.7-1.8-1.5-2.3-0.4-0.3-0.9 0.3-1 0.7-0.1 0.9 0.5 1.7 0.6 2.6 0.2 1.6-0.2 3.2 0.1 4.8 0.3 1.4 1.5 2.6 1.8 4 0.2 0.7-0.5 1.6-0.3 2.3 0.5 1.6 2 2.8 2.4 4.4 0.3 1.2-0.4 2.3-0.6 3.5-0.5 3.1-0.2 6.4-1.5 9.2-1.1 2.4-4.7-1.2-5.4-1.8-1.1-1-1.9-1.5-2.5-2 0.8-1.9 3.7-2.9 4.8-4.9 1-2 1.6-4.3 1.5-6.5-0.3-4.7-2.7-9.7-5.1-13.8-3.2-5.3-9.2-8.2-13.3-12.9-2.8-3.2-5.6-6.6-7.5-10.5 0.8-0.2 1.7 0 2.5 0.2 1.4 0.4 2.7 1.2 3.8 2.2 1.5 1.4 2 3.7 3.6 5 0.6 0.5 1.7 0.1 2.4-0.4 0.5-0.4 0.6-1.3 0.3-2-0.7-1.6-2.1-2.8-3.1-4.3-2.4-3.8-4.9-7.5-6.9-11.6-0.3-0.5 0.6-1 0.5-1.6-0.3-0.8-1.2-1.3-1.5-2.2-0.4-0.9-1.1-2.1-0.4-2.9 0.5-0.6 1.7-0.1 2.4 0.4 1.9 1.1 3.1 3.1 5 4 0.4 0.3 1.1-0.4 1-0.9-0.4-1.3-1.2-2.5-2.3-3.3-2-1.6-4.6-2.3-6.8-3.7-0.8-0.5-1.5-1.3-2-2.1-0.8-1.5-0.8-3.4-2-4.7-2.2-2.6-5.1-4.3-7.6-6.5-3.3-2.8-6.6-5.6-9.6-8.8-0.5-0.5-0.8-1.3-0.7-2 0.2-0.6 0.8-1.2 1.4-1.1 1.8 0.2 3.6 0.7 5.1 1.8 2.6 2 4.5 4.9 7 7.1 2.5 2.3 5 4.6 8 6.3 1.9 1 4.4 0.2 6.2 1.4 2.1 1.5 2.9 4.4 4.9 6.1 1.6 1.3 7.8 4.4 12 6.3 1.7 0.7 3 1.3 3.7 1.4 0.6 0.2 1.9 3.8 3.3 5.4 1.5 1.8 3.5 3.1 5.1 4.9 1.8 2.1 3.1 4.8 5.1 6.8 2.3 2.3 7.1 5.6 7.6 6.1 0.4 0.4 13.9 25.1 14.4 26.1 4 8.1 7.1 20.3 9.8 29.1z"/>
	<path id="&lt;Path&gt;" class="s36" d="m113.8 387.2c2.7 2.1 7.4 0.6 9.9 3 3.5 3.4 5.2 8.4 7.8 12.7q-0.1-0.1-0.2-0.1c-1.3-0.2-2.9 1-3.2 2.3-0.5 2.3 1.4 4.6 1.3 6.9 0 0.7-1 1.2-1.7 1.1-2-0.1-3.8-1.4-5.8-1.7-1.7-0.2-3.6 0.7-5.3 0.3-1.1-0.3-1.6-1.7-2.6-2.3-0.8-0.3-1.9 0.1-2.7-0.2-1.4-0.7-2.3-2.2-3.7-2.8-0.3-0.1-0.2 1 0.1 1.2 1.4 1.4 3.3 2.2 4.6 3.6 0.5 0.6 0 1.9 0.6 2.2 2.7 1.4 6 1.1 8.7 2.5 0.9 0.5 1.1 1.8 1.4 2.7 0.3 1.1-0.1 2.4 0.5 3.3 0.8 1.1 2.2 1.8 3.5 2.1 1.3 0.3 2.7-0.4 4.1-0.3 0.8 0 1.6 0.6 2.4 0.4 2.2-0.6 4.1-2.3 6.4-2.7 1.1-0.2 2.4 0.4 3.2 1.1 3.6 3.5 5.9 8.2 9.8 11.3 1.2 0.9 3.1-0.2 4.6 0.3 2 0.7 3.5 2.5 5.5 3.2 1.1 0.4 2.3 0.1 3.4-0.2 1.6-0.4 2.9-1.9 4.5-1.9 1.3 0 2.8 0.6 3.6 1.7 0.8 1.1 1 2.7 0.4 3.9-0.5 1-2 1.4-3.1 1.4-2.6 0.1-5-0.6-7.5-0.9-0.7-0.1-1.4 0.1-1.9-0.2-1.4-0.7-2.3-2.2-3.8-2.6-1.2-0.3-2.5 0.4-3.7 0.8-1.2 0.3-2.2 1.3-3.4 1.2-2-0.2-3.6-1.6-5.5-2.1-0.8-0.2-2.6-0.5-2.6 0.3 0 1.1 1.7 1.3 2.6 1.8 0.9 0.6 2.2 0.6 2.9 1.4 0.7 0.8 1.5 2 1.2 3-0.5 1.2-2.6 1-3.2 2.1-0.4 0.9-0.2 2.2 0.4 2.9 1.2 1.3 3.4 1.4 4.8 2.5 0.6 0.6 1 1.6 1.1 2.5 0.1 0.7-1 1.4-0.7 2.1 0.4 0.9 1.6 1 2.4 1.6 0.8 0.6 2 1 2.5 1.9 0.3 0.7-0.6 1.7-0.2 2.5 0.4 0.8 1.8 0.8 2.3 1.6 0.5 0.7 0.1 1.8 0.7 2.4 1.3 1.6 3.2 2.7 5.1 3.5-3.1-0.8-6.3-1.3-9.2-2.5-7.2-2.9-14.4-5.8-21.1-9.7-3.5-2-6-5.7-9.4-7.9-4.9-3.1-10.9-4.4-15.6-7.8-7-5.1-13.3-11.1-19.1-17.4-8.3-9-9.5-14.4-22-25-4.2-3.6-12.7-8.3-13.2-9.9-5.1-13.7-6.7-27.1-15.2-41.3-2-3.4-0.6-8-1.9-11.7-3-8.6-10.2-22.9-11-25-0.4-1.3 1.6-7.6 1.2-11.4-1.8-13.8-3.7-27.7-8-40.9-0.4-1.2 2.4-7 2.3-10.6-0.2-4.8-3.2-12.4-3.1-14 0.2-1.6 5.6-13.1 8-19.7 1.7-4.6 3-8.9 4.3-13.1-4.9 22.5 3.2 16.8 3.7 23.6 0.2 3.1-0.5 6.3-1 9.4-0.7 4.5-2.6 8.8-2.6 13.3 0 1.6 2.3 2.5 2.6 4.2 0.4 2.2-1.4 4.6-0.8 6.8 1 3 5.5 4.8 5.4 7.9-0.5 8-4.3 15.4-7.2 22.8-0.9 2 0.6 2.6 1.8 2.2 2.9-0.7 6.3-2.2 8.7-3.1 2.8-1 2.5 0.7 1.2 2.8-2.6 4.2-5.6 8.6-6.4 13.6-0.8 4.4 2.2 15.6 7.5 11.7 4.8-3.4 7.7-8.9 11.8-13.2 3.7-4 8.6-3 6.8 4.5-1.8 7.9-5.1 15.4-7.2 23.1-1.4 5.3-3.6 10.5-3.4 16 0.1 2.8 1.4 6.7 4.2 7.5 8.5 2.5 14.2-7 18.9-10.2 6.7-4.5 4.6 4.4 4.2 8-4.8 36.7 5 25.2 20.2 24.6 15.2-0.6 9 5.9 13.1 9.1z"/>
	<path id="&lt;Path&gt;" class="s37" d="m143.1 422.5c3.6 3.5 5.9 8.2 9.8 11.3 1.2 0.9 3.1-0.2 4.6 0.3 2 0.7 3.5 2.5 5.5 3.2 1.1 0.4 2.3 0.1 3.4-0.2 1.6-0.4 2.9-1.9 4.5-1.9 1.3 0 2.8 0.6 3.6 1.7 0.8 1.1 1 2.7 0.4 3.9-0.5 1-2 1.4-3.1 1.4-2.6 0.1-5-0.6-7.5-0.9-0.7-0.1-1.4 0.1-1.9-0.2-1.4-0.7-2.3-2.2-3.8-2.6-1.2-0.3-2.5 0.4-3.7 0.8-1.2 0.3-2.2 1.3-3.4 1.2-2-0.2-3.6-1.6-5.5-2.1-0.8-0.2-2.6-0.5-2.6 0.3 0 1.1 1.7 1.3 2.6 1.8 0.9 0.6 2.2 0.6 2.9 1.4 0.7 0.8 1.5 2 1.2 3-0.5 1.2-2.6 1-3.2 2.1-0.4 0.9-0.2 2.2 0.4 2.9 1.2 1.3 3.4 1.4 4.8 2.5 0.6 0.6 1 1.6 1.1 2.5 0.1 0.7-1 1.4-0.7 2.1 0.4 0.9 1.6 1 2.4 1.6 0.8 0.6 2 1 2.5 1.9 0.3 0.7-0.6 1.7-0.2 2.5 0.4 0.8 1.8 0.8 2.3 1.6 0.5 0.7 0.1 1.8 0.7 2.4 1.3 1.6 3.2 2.7 5.1 3.5-3.1-0.8-6.3-1.3-9.2-2.5-7.2-2.9-14.4-5.8-21.1-9.7-3.5-2-6-5.7-9.4-7.9-4.9-3.1-10.9-4.4-15.6-7.8-7-5.1-13.3-11.1-19.1-17.4-6.6-7.1-8.7-12-15.6-19.1 1.3 0.9 2.6 1.7 3.8 2.8 1.6 1.4 2.6 3.5 4.2 5 1.6 1.6 3.4 3.3 5.4 4.4 1 0.6 2.3 0.6 3.5 0.8q0 0 0.1 0c1 0.2 2.1 0.1 3.1 0.5 1.2 0.5 2 1.9 3.3 2.2 1.2 0.2 2.9-2.3 3.6-2.2 1.2 0 3.2 2.1 5.2 2.1 0.4-0.1 0.5-0.7 0.4-1-0.2-1-0.7-2-1.3-2.8-2.4-3.2-5.5-5.9-7.8-9.2-0.4-0.6-0.5-1.5 0-2 0.7-0.7 2.1-0.2 2.9-0.8 0.4-0.3 0.6-1.1 0.3-1.6-3.5-5.5-13-14.8 2.1-6.9 3.1 1.6 5.9 3.5 9.1 4.8 5.7 2.4 1.8-4.6 2.5-5.4 1.2-1.3 7.6 2.2 12.2 4.3 1.5 0.7 2.6-1.4 4.3 0.2 3.8 3.3 4.2-0.1 6.6-2.1 1.2-1 5.3 0.9 6.8 1 1 0.2 2.7-0.2 2.1-1.6-0.7-1.6-2-3-2.6-4.8-0.2-0.8-0.2-1.8 0.4-2.4 1.4-1.2 3.6-1.3 4.9-2.6 0.7-0.7 0.1-2.1 0.6-2.9 0.3-0.7 1.6-0.7 1.7-1.5 0.2-1.1-0.7-2.1-0.8-3.2-0.5-2.8 2.5-1.9 3.3-2.5 1.3-1.1-0.2-3.7 0.2-4.8 0.2-0.8 1.1-1.4 2-1.6q-0.1 0-0.1 0c-0.6 0.3-1 1.2-0.8 1.8 0.5 1.8 2.2 3.2 2.6 5 0.1 0.6-1.5 0.3-1.5 0.9 0.1 1.1 1.4 2 1.6 3.1 0 0.8-1.1 1.4-1 2.2 0.3 1.6 1.8 2.8 2.2 4.4 0.2 0.8-1.1 1.7-0.7 2.4 0.9 1.6 2.9 2.1 4 3.5 0.5 0.7 0.9 1.7 0.8 2.6-0.2 1.2-0.7 2.5-1.6 3.5-0.7 0.8-1.9 1.1-3 1.4-1.5 0.4-3 0.8-4.5 0.7-1-0.1-1.8-1.2-2.8-1.2-0.9 0-1.5 1.2-2.3 1.3-1 0-1.9-1.6-2.8-1.1-0.8 0.5 0.5 2.6-0.5 3-1.7 0.5-3.5-1.1-5.3-1.1-2.3 0.1-4.4 1.8-6.7 1.4-1.6-0.3-2.1-3-3.7-3.3-1.3-0.2-2.9 1-3.2 2.3-0.5 2.3 1.4 4.6 1.3 6.9 0 0.7-1 1.2-1.7 1.1-2-0.1-3.8-1.4-5.8-1.7-1.7-0.2-3.6 0.7-5.3 0.3-1.1-0.3-1.6-1.7-2.6-2.3-0.8-0.3-1.9 0.1-2.7-0.2-1.4-0.7-2.3-2.2-3.7-2.8-0.3-0.1-0.2 1 0.1 1.2 1.4 1.4 3.3 2.2 4.6 3.6 0.5 0.6 0 1.9 0.6 2.2 2.7 1.4 6 1.1 8.7 2.5 0.9 0.5 1.1 1.8 1.4 2.7 0.3 1.1-0.1 2.4 0.5 3.3 0.8 1.1 2.2 1.8 3.5 2.1 1.3 0.3 2.7-0.4 4.1-0.3 0.8 0 1.6 0.6 2.4 0.4 2.2-0.6 4.1-2.3 6.4-2.7 1.1-0.2 2.4 0.4 3.2 1.1z"/>
	<path id="&lt;Path&gt;" class="s38" d="m143.1 422.5c3.6 3.5 5.9 8.2 9.8 11.3 1.2 0.9 3.1-0.2 4.6 0.3 2 0.7 3.5 2.5 5.5 3.2 1.1 0.4 2.3 0.1 3.4-0.2 1.6-0.4 2.9-1.9 4.5-1.9 1.3 0 2.8 0.6 3.6 1.7 0.8 1.1 1 2.7 0.4 3.9-0.5 1-2 1.4-3.1 1.4-2.6 0.1-5-0.6-7.5-0.9-0.7-0.1-1.4 0.1-1.9-0.2-1.4-0.7-2.3-2.2-3.8-2.6-1.2-0.3-2.5 0.4-3.7 0.8-1.2 0.3-2.2 1.3-3.4 1.2-2-0.2-3.6-1.6-5.5-2.1-0.8-0.2-2.6-0.5-2.6 0.3 0 1.1 1.7 1.3 2.6 1.8 0.9 0.6 2.2 0.6 2.9 1.4 0.7 0.8 1.5 2 1.2 3-0.5 1.2-2.6 1-3.2 2.1-0.4 0.9-0.2 2.2 0.4 2.9 1.2 1.3 3.4 1.4 4.8 2.5 0.6 0.6 1 1.6 1.1 2.5 0.1 0.7-1 1.4-0.7 2.1 0.4 0.9 1.6 1 2.4 1.6 0.8 0.6 2 1 2.5 1.9 0.3 0.7-0.6 1.7-0.2 2.5 0.4 0.8 1.8 0.8 2.3 1.6 0.5 0.7 0.1 1.8 0.7 2.4 1.3 1.6 3.2 2.7 5.1 3.5-3.1-0.8-6.3-1.3-9.2-2.5-7.2-2.9-14.4-5.8-21.1-9.7-3.5-2-6-5.7-9.4-7.9-4.9-3.1-10.9-4.4-15.6-7.8-7-5.1-13.3-11.1-19.1-17.4-6.6-7.1-8.7-12-15.6-19.1 1.3 0.9 2.6 1.7 3.8 2.8 1.6 1.4 2.6 3.5 4.2 5 1.6 1.6 3.4 3.3 5.4 4.4 1 0.6 2.3 0.6 3.5 0.8q0 0 0.1 0c1 0.2 2.1 0.1 3.1 0.5 1.2 0.5 2 1.9 3.3 2.2 1.2 0.2 2.9-2.3 3.6-2.2 1.2 0 3.2 2.1 5.2 2.1 0.4-0.1 0.5-0.7 0.4-1-0.2-1-0.7-2-1.3-2.8-2.4-3.2-5.5-5.9-7.8-9.2-0.4-0.6-0.5-1.5 0-2 0.7-0.7 2.1-0.2 2.9-0.8 0.4-0.3 0.6-1.1 0.3-1.6-3.5-5.5-13-14.8 2.1-6.9 3.1 1.6 5.9 3.5 9.1 4.8 5.7 2.4 1.8-4.6 2.5-5.4 1.2-1.3 7.6 2.2 12.2 4.3 0.9 0.4 1.6-0.1 2.4-0.3q0.6 1 1.2 2.1-0.1-0.1-0.2-0.1c-1.3-0.2-2.9 1-3.2 2.3-0.5 2.3 1.4 4.6 1.3 6.9 0 0.7-1 1.2-1.7 1.1-2-0.1-3.8-1.4-5.8-1.7-1.7-0.2-3.6 0.7-5.3 0.3-1.1-0.3-1.6-1.7-2.6-2.3-0.8-0.3-1.9 0.1-2.7-0.2-1.4-0.7-2.3-2.2-3.7-2.8-0.3-0.1-0.2 1 0.1 1.2 1.4 1.4 3.3 2.2 4.6 3.6 0.5 0.6 0 1.9 0.6 2.2 2.7 1.4 6 1.1 8.7 2.5 0.9 0.5 1.1 1.8 1.4 2.7 0.3 1.1-0.1 2.4 0.5 3.3 0.8 1.1 2.2 1.8 3.5 2.1 1.3 0.3 2.7-0.4 4.1-0.3 0.8 0 1.6 0.6 2.4 0.4 2.2-0.6 4.1-2.3 6.4-2.7 1.1-0.2 2.4 0.4 3.2 1.1z"/>
	<path id="&lt;Compound Path&gt;" class="s39" d="m125.5 105.3c-3.9 1.5-5.7 5.3-6.8 5.8-6.8 2.5 1.3-4.6 1.9-5.6 1-1.5 5.4-3.9 5.6-5 0.7-3.4 3.2-1.1 4.3-3 1.9-3.5 0.1-0.4 3.2-2.6 0.3-0.2 1.9 1.2 1.1 2-2.6 2.4-3.8-0.5-3.8 3.4 0 1.2-4.3 4.5-5.5 5zm14.8-15.9c2.6-3 6.3-8.5 10.6-8.2 5.7 0.4 5.7-9.9 14.7-5.9 4.9 2.2 3.2 5.5-0.9 5.3-7.8-0.3-2.4 6.5-7.8 5.5-6.4-1.1-10.2 3.8-15.1 6.2-3.3 1.6-4.8 1.2-1.5-2.9zm35.7-14c1.4-0.6 11.5-3.1 13.7-3.5 7.8-1.6 19.5-2.6 19.8-5.8 0.4-5.6-21.9 3.9-25.5 2.9-4.7-1.3-11.4 6.3-15.4 2.8-4.2-3.7 3.3-6.2 3.6-6.6 4.4-6.2 24.7-3.3 29-9 4.8-6.1-5-3.2-7.1-4.7-6.3-4.4 12.8-4.5 13.4-5.1q1.1-0.9 1.5-1.6c1.5-0.4 2.9-1 4.4-1.2 7-0.9 13.9-1.8 20.9-1.9 1.6 0 2.9 1.5 4.4 1.8 2.1 0.5 4.3 0.6 6.4 0.5 2.8-0.1 5.6-1.2 8.4-0.9 5.9 0.6 11.9 1.7 17.6 3.5 5 1.6 9.4 4.7 14.3 6.6 3.2 1.2 6.9 1.2 10 2.6 3.5 1.4 6.9 3.2 9.6 5.8 2.6 2.6 3.8 6.2 5.8 9.2q0.1 0.2 0.3 0.3c2.4 2.1 4.6 4.3 7.2 6.2 1.8 1.3 3.9 2.3 5.9 3.5-2.9-0.5-7.2-2.9-8.1-2.9-6.9 0.3-2.1 5.5 0.5 6.6 2.8 1.2 8.5 6.8 8.5 6.8 3.2 1.1 2.2-1 2.2-2.2 0-2.1 1.6-2.7 3.8-2.5q0.9 1.1 1.8 2.1c1.2 1.7 2.5 3.4 3.6 5.2-2.7-0.5-4.8-0.4-3.9 1.6 3.9 8.6-7.8 8.3-8.4 4.2-0.7-5.2-7.3-8.9-12.2-8.9-4.3 0-4.7-1.7-5-3.3-0.7-5.5-8.3-3.8-7.8 0.1 0.3 1.6 1.3 3.5 2.3 5 1.4 2.2 1.5 3.5 0.6 5.4-1.4 3-4.5-2.2-6-3.7-4.1-4.1-3.7-7.1-3.4-9.4 0.5-3.9-1-6.1-6.9-5.1-2.1 0.3-3.3-1.5-4-2.1-2.9-2.6-7.1-4.6-8.4 0-0.4 1.8 1.1 14.3-2.3 15-6.9 1.4-2.5-7.9-3.6-9.1-2.5-2.8-0.2-8-1.6-9.4-4-4.1-4.1 7.1-7.5 8-7 2-1.4-4.3-1.4-4.4 0.6-9.3-8.7-1.4-8.8-1.4-5.2 0.2-8.2 10.2-12.4 6.5-3.8-3.3 3.9-4.6 2.5-7.5-1.9-3.9-8.4 2.1-11.9 0.8-1.3-0.5 2.1-8.6-8.7-0.6-6.4 4.8-6.3-1.2-5.5-1.9 2.5-2.1-1.4-1.9-4.5-0.8-6.3 2.2-12.8 9-16.9 12.3-2.7 2.3-5 2.2-4.1-0.1 0.8-2.1 2.6-4.4 1-5.3-3-1.8-11 2.8-13.2 0.4-2.3-2.4-0.9-3.9 1.5-4.8z"/>
	<path id="&lt;Compound Path&gt;" fill-rule="evenodd" class="s40" d="m117.1 303.6c1.1 1.7 0.9 4.2 2.5 5.4 1.9 1.3 4.5 1.6 6.8 1.1 2.9-0.7 5.5-2.7 7.7-4.7 2.8-2.6 4.3-6.3 7.1-8.8 1.5-1.4 4.4-1 5.6-2.6 1.7-2.2 1.3-5.4 2.5-8 0.6-1.4 1.3-3.3 2.8-3.6 2.5-0.4 5 2.6 7.4 1.7 1.9-0.6 1.2-4.2 2.9-5.3 3.4-2 7.9-1.3 11.3-3.2 5.1-2.8 9.4-6.9 13.7-10.8 2-1.9 3.2-4.6 5.3-6.4 2.3-2 5.2-3 7.8-4.6 4.4-2.7 9.1-4.9 13.2-8.1 3.2-2.5 5.2-6.3 8.3-8.7 1.1-0.9 3.3-2 4-0.8q0.2 0.4 0.3 0.8c-0.9-1.8-3.1 0.7-4.5 2.7-1.2 1.7-1.9 3.8-3.3 5.3-1.5 1.7-3.3 3.3-5.2 4.4-3 1.7-6.4 2.6-9.5 4.1-2.2 1-8.3 3.9-9.9 5.7-1.4 1.4-2.3 3-3.3 4.7-2.1 3.3-14.6 20-18.3 18.9-0.6-0.1-0.8-0.7-0.8-1.3 0.1-1-0.1-2.2-2.1-1.2-2.4 1.2-4.5 4-5.2 6.1-1 3.3-2.5 8.8-3.9 11.9-1.4 3.2-3.5 2.8-3.9-0.5-0.1-1.4 0.1-3.4 0.4-5 0.6-4.9-0.7-5.5-2.4 0.2-0.9 3.2-1.9 7.5-2.6 8.7-1 1.9-2.4 1.6-3.1 0.6-2.7-3.6-5.9 0.3-7.9 6.1-1 3.1-2 6.7-2.8 8.7-1.4 3.4-5.5 1.1-2.6-2.1 2.4-2.4 2.4-6.3-4.3-2-2.2 1.3-4 3.2-6.4 4.1-7.1 3-8-3.7-12.5 0.8-2.5 2.5-4.6 5.5-7.2 8q-0.3-0.3-0.5-0.7c-1-2.3 2-5.1 1.1-7.5-0.5-1.6-2.9-2.1-4.5-1.9-2.4 0.2-4.1 2.9-6.5 2.8-2.3-0.1-4.2-2.1-6-3.6-2.8-2.4-5.4-5.1-7.5-8.1-0.8-1.1-1.2-2.5-1.2-3.9-0.1-1.6 1.5-3 1-4.5-0.4-1.3-2.7-1.4-3.3-2.6-0.6-1.2 0.7-2.7 0.2-3.9-0.2-0.6-1.2 0-1.8-0.1-3.1-0.8-6.5-1.1-9.3-2.8-1.2-0.6-1.8-2.3-1.7-3.7 0.1-1.7 2.6-3 2.3-4.7-0.3-1.6-2.3-2.4-3.6-3.3-1.1-0.7-2.5-0.8-3.6-1.3-0.1-0.1-0.1-0.3 0-0.4 0.2-1.1 0.2-2.3 0.7-3.3 0.7-1.3 2.1-2.1 2.8-3.4q0-0.1 0.1-0.2c2.5-1.7 4.9-3.2 5.9-4.5 0.9-1.2 1.8-3 1.1-4.4-0.9-2-3-1.4-5.2-1.2-5.1 0.6-5.5-3.4-0.4-7.9 11.2-9.9 20.8-2 32.5-11.2 0.8-0.7 0.1-2.2 0.8-2.9 0.7-0.7 2-0.7 2.9-1 3.2-1.2 0.6-5.8 1.4-7.9 1.5-4.5 6.2-1.2 8.2-2 3.6-1.5 2.9-5.6 3.3-6.4 0.3-0.6 1.5-0.6 1.7-1.3 0.3-1.1-1.6-4.6-0.6-6.3 1.5-2.3 4.7-0.1 5.4-0.2 2.6-0.2 2-4.1 3.4-5.2 0.9-0.8 2.1-1 3.3-1.3q-0.7 0.3-1.2 0.8c-2.3 2.1-2.3 5.8-4.2 8.3-0.6 0.9-2.5 0.4-3 1.4-1.4 2.5-2 5.6-2.5 8.5-0.4 2.4 1.5 5.5-0.2 7.4-2.1 2.4-6.3 1.6-9.1 3.2-2.1 1.3-4.1 3.1-5.4 5.3-0.9 1.4 0.2 3.4-0.6 4.7-0.8 1.4-3.7 1.1-4 2.7-0.4 2.8 2 5.5 2.3 8.3 0.1 1.3 0 3.1-1.2 3.6-2.4 1-5.4-0.7-7.9 0.2-2 0.8-2.4 3.9-4.4 4.6-1.6 0.5-3.2-1.6-4.9-1.6-1.1 0.1-2.4 0.7-2.8 1.7-0.9 1.9 0.2 4.3-0.8 6.1-0.9 1.5-4.2 1.3-4.3 3-0.2 2.3 1.4 5 3.6 5.9 2.6 1.1 5.7-0.3 8.5-0.7 1.2-0.3 2.7-2.3 3.6-1.4 1 1.2 0 3.3-0.6 4.8-1.5 3.8-4.8 6.9-5.7 11-0.4 1.8 1.9 3.4 2.1 5.3 0.2 1.9-1.7 3.9-0.9 5.6 0.8 1.9 3 3.7 5.1 3.6 1.9 0 2.3-3.6 4.1-3.9 3-0.6 6 2.5 8.9 1.7 2.6-0.7 3.5-4.1 5.5-5.7 1.4-1 3.1-2.8 4.6-2.1 2.5 1.1 3.6 4 5.1 6.2zm-51.8-60c-0.5 0-1.3-0.2-0.6-1.8 0.6-1.2 1.8-2.1 2.8-2.9 2.6-1.9 6.3-2.7 7.5-3.6 0.6-0.4 0.9-1.6 1.6-1.9 1.8-1 4.7-0.6 6.4 0.7 3.3 2.6 3.9 6.2 0.1 6.3-2.3 0-5.1 0.3-6.8 0.6-3.7 0.6-7.2 2.3-11 2.6z"/>
	<path id="&lt;Path&gt;" class="s41" d="m159.9 10.6c7.2-10.4 19.3-9.4 28.7-4.6 11.6-9.4 32.8 2.1 31.5 11.1-0.2 1.6-1.4 2.9-4.2 3-9.2 0.3-12.9 0.3-21.7 2.7-8.2 2.4-22.3 9.5-28 10.5-15.9 2.6-11.9-14.6-6.3-22.7z"/>
	<path id="&lt;Path&gt;" class="s42" d="m190.7 17.9c-0.3-3.3 1.1-8.9 7.3-9.6 6.1-0.7 23.7 6.7 15.7 11.9-7.7 0.2-11.4 0.4-19.5 2.6-8.2 2.4-22.3 9.5-28 10.5q-1.5 0.2-2.7 0.2c-7.2-2.5-5.1-13.5 2-17.9 8-4.9 18.4-1.5 25.2 2.3z"/>
	<path id="&lt;Path&gt;" class="s43" d="m95.2 369.5c-7.3-8.9-19.5-29.7-15.5-53.7 3.4-21.2 19-20.7 24.8-18-0.6-17 4.9-35 17.4-46.1 16.1-14.5 30.2 1.5 24.9 13.9-20.2 47.4-33.6 77.6-11.5 131 16.3 39.2 49 72.5 83.7 90.3-35.1 12.7-79.9-3.7-111-41.1-10.3-12.3-17.4-32.1-6.6-38.4-6.6-2.1-15.5-11.2-17.2-21.4-1.2-6.8 1.9-14.8 11-16.5z"/>
	<path id="&lt;Path&gt;" class="s44" d="m135.3 396.6c16.3 39.2 49 72.5 83.7 90.3-8.3 3-17.1 4.4-26.1 4.2-52.1-6.2-103.6-56.1-81.6-82.8-18-1.5-34-26.9-8.2-32.5-17.8-20.4-27-71.4 8.5-60.2-4.2-9.5-4.2-27.7 4.6-39.8 11.4-15.5 22.8-8.2 22 10.2-14.8 36.7-21.7 65.3-2.9 110.6z"/>
	<path id="&lt;Path&gt;" class="s45" d="m14.4 300.7c-1.1-20.5 12.5-34.1 30.5-40-5.1-8.6-7.1-16.2-0.7-27.5 3.4-5.9 14.9-18.3 22-19.1 6-0.7 4.8 2.8 4.2 4.8-3 9.4-7.3 18.8-9.7 28.5-13.3 53.5-6.6 70.4-12 83.3-4.5 10.8-32.8-3.2-34.3-30z"/>
	<path id="&lt;Path&gt;" class="s46" d="m47.1 261.7c9.9 1 6.9-10.7 8.8-19.7 2.6-12.7 7.9-22.3 7.2-24.4-0.3-1.2-4.3 0.3-10.5 5.3 4.5-4.4 9.7-8.4 13.6-8.8 6-0.7 4.8 2.8 4.2 4.8-3 9.4-7.3 18.8-9.7 28.5-13.3 53.5-6.6 70.4-12 83.3-4.5 10.8-32.8-3.2-34.3-30-0.4-7.9 1.3-14.7 4.7-20.5-4.8 14.3-3.8 34.7 15.8 25.2 17.3-8.5 21-27.4 12.2-43.7z"/>
	<path id="&lt;Path&gt;" class="s47" d="m123.5 175.3c2.4-11.2 12.1-21.4 21.8-27.6-6.6-3.6-19.6-16.3-2.5-38.4 16.5-21.4 50.2-34.8 58.7-12.1 5.3-5.8 11.5-10.1 19.2-8.7 3.3 0.7 6 3.4 7.4 6.8 3.6-12.6 21.2-32.5 45.3-29.6 31.5 3.8 37.3 33.1 4.8 44.7-22 7.9-42.1 6.9-67.2 18.1-26.5 11.8-38.7 19.6-54.6 43.4-3 4.5-5.2 9.7-8.5 14.1-13 17.5-28.6 9.2-24.4-10.7z"/>
	<path id="&lt;Path&gt;" class="s48" d="m148.6 148.2c22.1 5.3 53-15.5 52.4-46.9 2.4 19.7 22.7 18.8 26.4 1.4 3.5 7.1 8.3 9.9 14.2 10.7 15.8 2.1 32.6-3.6 42.8-12 13.7-11.3 13.9-30.3-13.4-35.9q1.2 0 2.4 0.2c31.5 3.8 37.3 33.1 4.8 44.7-22 7.9-42.1 6.9-67.2 18.1-26.5 11.8-38.7 19.6-54.6 43.4-3 4.5-5.2 9.7-8.5 14.1-10.7 14.4-23.1 11.3-24.9-1.3 2.8 7.7 8.8 7.8 14.7 4 7.5-4.9 18.7-22.2 18.9-31.1 0.2-4.1-1.9-7.5-8-9.4z"/>
	<path id="&lt;Path&gt;" class="s49" d="m426.7 158.6c-19.5 12.9-28.9 31.6-42 41.4-11.7 8.6-23 0-28.5-3.8-14.7-10.1-25.9 6.5-33.4 19.2-12.5 21-18.4 55.9-47.5 58.6-29 2.7-47.5-25.5-31.1-64 18.8-44.3 68.5-62.7 102.6-54.4 1.7-15.3 12-22 22.3-15.6-2.3-8.6-0.4-17.2 4.2-23.4 12.6-16.9 46.6-11.1 53.7 6.3 24.2-28 67.1 7.8 48.9 43.1-6.5-23.8-28.8-20.8-49.2-7.4z"/>
	<path id="&lt;Path&gt;" class="s50" d="m365.1 173.8c2.2 5.1 5.4 8 9.1 9.2 12.1 3.6 27.9-7.5 17.7-22.6-2.7-4.1-7-7.9-12.3-11.4 21.1 12.2 47.3 6.7 47.9-20.9 8.3 6.2 28.3 14.4 36.8 9 8.4-5.3 3.2-13.9-1.7-19.8 14.4 8.6 23.6 28.7 13.3 48.7-6.5-23.8-28.8-20.8-49.2-7.4-19.5 12.9-28.9 31.6-42 41.4-11.7 8.6-23 0-28.5-3.8-14.7-10.1-25.9 6.5-33.4 19.2-12.5 21-18.4 55.9-47.5 58.6-25.9 2.4-43.3-19.8-35.3-51.8-1.7 46.7 37.3 41 61.3 4.7 13-19.8 20.1-46.1 43.2-56.4 8.1-3.6 17.1-4.9 20.6 3.3z"/>
	<path id="&lt;Path&gt;" class="s51" d="m509.4 193.4c5.2 1.6 9.6 4.7 13.1 8.3 10.3 10.7 1.1 26-9.6 35.1-5.9 5-9.9 6.4-11.1 5.6-1.4-1.1 0.5-5.3 1.3-11.2 3.1-23.8-9.3-44.6-8.8-51.6 0.1-2.3 1.9-5 4.1-5.4 2.6-0.4 5.3 1.7 7 3.7 4.4 4.9 5.1 10 4 15.5z"/>
	<path id="&lt;Path&gt;" class="s52" d="m507.5 240.8c-2.9 1.7-4.9 2.1-5.7 1.6-1.4-1.1 0.5-5.3 1.3-11.2 2.6-20.1-5.8-38-8.2-47.4 3.8-3.8 9.3 5.4 7.6 12.7 7.8 1.2 15.9 7.6 17 15.9 1.2 9.6-3.7 21.2-12 28.4z"/>
	<path id="&lt;Path&gt;" class="s53" d="m354.4 470.9c-71.3 53.1-134.1-49.9-81.8-69.8-13.9-45.9 18.4-101.2 52.6-93.2 8 1.8 15.8 9 16.9 23.1 8.3-30.1 52.4-55 57.7-23.2 23.5-42.7 80-39.9 63.7 28.3-6.9 28.9-16.7 45.2-30.3 60.7-24.6 28.2-76.4 22.3-34.9-25.9 2.6-3 8.6-10.6 14.1-18.7 11.6-16.8 14.1-38.1-11.6-28-6.9 2.7-16.8 11.2-22 13.8-13 6.5-19.9 5.8-32.3 13.4-34.4 21.1-23.4 37.1-21.1 56.1 1.5 12.7-2.2 17.2-6.9 20.3-12.7 8.2-21.8 20.3-11.8 35.8 8.5 13.1 32.1 16 47.7 7.3z"/>
	<path id="&lt;Path&gt;" class="s54" d="m354.4 470.9c-40.2 23.5-90.6-12.3-78.4-45.5 3.6-9.6 13.3-15.2 26.1-13.4-7-16.3-10.5-35.5-6.1-55.3 7.6-33.5 42.9-50 44-8.4 8.8-33.9 62.8-62.2 56.3-26.5 16.2-20.3 32.3-21.8 42.8-13.9 26.2 19.6 10.3 69-13.1 94-4.6 5-9.8 8.2-16.3 10.1-22.3 6.7-41.7-5.9-11.4-41.1 2.6-3 8.6-10.6 14.1-18.7 11.6-16.8 14.1-38.1-11.6-28-6.9 2.7-16.8 11.2-22 13.8-13 6.5-19.9 5.8-32.3 13.4-34.4 21.1-23.4 37.1-21.1 56.1 1.5 12.7-2.2 17.2-6.9 20.3-12.7 8.2-21.8 20.3-11.8 35.8 8.5 13.1 32.1 16 47.7 7.3z"/>
</svg>